<svg id="Filled" height="512" viewBox="0 0 512 512" width="512" xmlns="http://www.w3.org/2000/svg"><path d="m288 56-46.311 23.155a32 32 0 0 0 -17.689 28.622v28.223h64z" fill="#ff9494"/><path d="m302.015 106.248-96 12a16 16 0 0 0 -14.015 15.876v33.876h128v-45.876a16 16 0 0 0 -17.985-15.876z" fill="#ed8989"/><path d="m334.671 137.444-160 13.333a16 16 0 0 0 -14.671 15.945v33.278h192v-46.611a16 16 0 0 0 -17.329-15.945z" fill="#ff9494"/><path d="m358.936 169.138-208 13.862a16 16 0 0 0 -14.936 15.969v49.031h240v-62.9a16 16 0 0 0 -17.064-15.962z" fill="#ed8989"/><circle cx="120" cy="272" fill="#f7cca9" r="64"/><circle cx="392" cy="272" fill="#f7cca9" r="64"/><path d="m488 440v16h-48v-48a160 160 0 0 0 -160-160h-48a160 160 0 0 0 -160 160v48h-48v-16a16 16 0 0 1 16-16v-16c0-106.039 85.961-192 192-192h48c106.039 0 192 85.961 192 192v16a16 16 0 0 1 16 16z" fill="#d49073"/><path d="m440 408v32h-368v-32a159.994 159.994 0 0 1 160-160h48a159.994 159.994 0 0 1 160 160z" fill="#b37a60"/><circle cx="392" cy="192" fill="#734b39" r="16"/><circle cx="256" cy="160" fill="#734b39" r="16"/><circle cx="336" cy="120" fill="#734b39" r="16"/><circle cx="128" cy="192" fill="#734b39" r="16"/><path d="m440 408h-48v48h-32v-48h-48v48h-32v-48h-48v48h-32v-48h-48v48h-32v-48h-48a160.642 160.642 0 0 1 3.2-32h44.8v-48h-26.59a160.746 160.746 0 0 1 58.59-58.59v26.59h48v-44.8a160.642 160.642 0 0 1 32-3.2h48a160.642 160.642 0 0 1 32 3.2v44.8h48v-26.59a160.746 160.746 0 0 1 58.59 58.59h-26.59v48h44.8a160.642 160.642 0 0 1 3.2 32z" fill="#c48669"/><g fill="#b37a60"><path d="m232 248h48v48h-48z"/><path d="m232 328h48v48h-48z"/><path d="m312 328h48v48h-48z"/><path d="m152 328h48v48h-48z"/><path d="m72 408h48v32h-48z"/><path d="m152 408h48v32h-48z"/><path d="m232 408h48v32h-48z"/><path d="m312 408h48v32h-48z"/><path d="m392 408h48v32h-48z"/></g><circle cx="200" cy="96" fill="#eb423f" r="24"/><path d="m480 417.371v-9.371a198.767 198.767 0 0 0 -26.246-98.955 72.028 72.028 0 0 0 -40.534-105.845 23.987 23.987 0 0 0 -33.52-31.8 23.9 23.9 0 0 0 -19.7-10.288v-7.722a24.071 24.071 0 0 0 -6.772-16.7 23.983 23.983 0 0 0 -34.4-33.431 23.979 23.979 0 0 0 -17.8-4.943l-5.028.624v-42.94a8 8 0 0 0 -11.578-7.155l-46.309 23.16a40.231 40.231 0 0 0 -10.6 7.684 32.1 32.1 0 0 0 -20.637-14.936 24.041 24.041 0 0 0 -22.876-16.753h-8a8 8 0 0 0 0 16h8a7.96 7.96 0 0 1 5.158 1.895 31.992 31.992 0 0 0 -3.217 58.843 23.822 23.822 0 0 0 -1.941 9.382v7.854l-9.993.834a24.136 24.136 0 0 0 -22.007 23.912v8.193l-1.587.1a23.857 23.857 0 0 0 -4.713.793 23.991 23.991 0 0 0 -39.784 25.581 72.022 72.022 0 0 0 -47.67 107.653 198.767 198.767 0 0 0 -26.246 98.96v9.371a24.041 24.041 0 0 0 -16 22.629v16a8 8 0 0 0 8 8h48a8 8 0 0 0 8-8v-8h32v8a8 8 0 0 0 8 8h32a8 8 0 0 0 8-8v-8h32v8a8 8 0 0 0 8 8h32a8 8 0 0 0 8-8v-8h32v8a8 8 0 0 0 8 8h32a8 8 0 0 0 8-8v-8h32v8a8 8 0 0 0 8 8h32a8 8 0 0 0 8-8v-8h32v8a8 8 0 0 0 8 8h48a8 8 0 0 0 8-8v-16a24.042 24.042 0 0 0 -16-22.629zm-88-233.371a8 8 0 1 1 -8 8 8.009 8.009 0 0 1 8-8zm0 32a56.041 56.041 0 0 1 51.787 77.359 201.251 201.251 0 0 0 -82.607-68.125 55.49 55.49 0 0 1 30.82-9.234zm-56-104a8 8 0 1 1 -8 8 8.009 8.009 0 0 1 8-8zm-.672 33.413a8.01 8.01 0 0 1 8.672 7.977v8.728l-64.886 4.325a23.9 23.9 0 0 0 -1.214-16.243zm-90.059-59.1 34.731-17.368v32l-47.971 6a23.849 23.849 0 0 1 13.24-20.63zm57.748 27.873a7.99 7.99 0 0 1 8.983 7.934v9.18l-112 9.34v-6.52a7.989 7.989 0 0 1 3.044-6.268 31.781 31.781 0 0 0 9.295-2.329zm-39.017 45.814a8.007 8.007 0 0 1 -6.843 7.907l-1.3.086a8 8 0 0 1 -1.451-15.833l1.793-.15a8 8 0 0 1 7.801 7.99zm-80-64a16 16 0 1 1 23.783 13.967l-2.755.344a23.939 23.939 0 0 0 -6.158 1.632 16.009 16.009 0 0 1 -14.87-15.943zm-16 70.72a8.042 8.042 0 0 1 7.333-7.967l57.437-4.789a23.992 23.992 0 0 0 1.174 15.49l-65.944 4.396zm-16 25.28c0-.353-.012-.7-.027-1.051l200.556-13.367 6.948-.46a8 8 0 0 1 8.523 7.978v18.983a71.3 71.3 0 0 0 -24.115 14.38 199.207 199.207 0 0 0 -63.885-10.463h-48a199.207 199.207 0 0 0 -63.885 10.463 71.455 71.455 0 0 0 -20.315-12.924 23.863 23.863 0 0 0 4.2-13.539zm-24-8a8 8 0 1 1 -8 8 8.009 8.009 0 0 1 8-8zm-8 32a55.49 55.49 0 0 1 30.82 9.234 201.251 201.251 0 0 0 -82.607 68.125 56.041 56.041 0 0 1 51.787-77.359zm-8 216h-32v-16h32zm80 0h-32v-16h32zm80 0h-32v-16h32zm80 0h-32v-16h32zm40-32a8 8 0 0 0 -8 8v40h-16v-40a8 8 0 0 0 -8-8h-48a8 8 0 0 0 -8 8v40h-16v-40a8 8 0 0 0 -8-8h-48a8 8 0 0 0 -8 8v40h-16v-40a8 8 0 0 0 -8-8h-48a8 8 0 0 0 -8 8v40h-16v-40a8 8 0 0 0 -8-8h-39.79a152 152 0 0 1 1.69-16h38.1a8 8 0 0 0 8-8v-48a8 8 0 0 0 -8-8h-11.87a153.28 153.28 0 0 1 35.87-35.87v11.87a8 8 0 0 0 8 8h48a8 8 0 0 0 8-8v-38.1a152 152 0 0 1 16-1.691v39.791a8 8 0 0 0 8 8h48a8 8 0 0 0 8-8v-39.79a152 152 0 0 1 16 1.691v38.099a8 8 0 0 0 8 8h48a8 8 0 0 0 8-8v-11.87a153.28 153.28 0 0 1 35.87 35.87h-11.87a8 8 0 0 0 -8 8v48a8 8 0 0 0 8 8h38.1a152 152 0 0 1 1.691 16zm-306.648-32a150.982 150.982 0 0 1 12.813-32h13.835v32zm74.648-80v-13.835a150.982 150.982 0 0 1 32-12.813v26.648zm80 0v-32h32v32zm80 0v-26.648a150.982 150.982 0 0 1 32 12.813v13.835zm93.835 48a150.982 150.982 0 0 1 12.813 32h-26.648v-32zm18.165 96h-32v-16h32zm48 16h-32v-40c0-92.636-75.364-168-168-168h-48c-92.636 0-168 75.364-168 168v40h-32v-8a8.009 8.009 0 0 1 8-8 8 8 0 0 0 8-8v-16c0-101.458 82.542-184 184-184h48c101.458 0 184 82.542 184 184v16a8 8 0 0 0 8 8 8.009 8.009 0 0 1 8 8z"/><path d="m280 320h-48a8 8 0 0 0 -8 8v48a8 8 0 0 0 8 8h48a8 8 0 0 0 8-8v-48a8 8 0 0 0 -8-8zm-8 48h-32v-32h32z"/><path d="m360 320h-48a8 8 0 0 0 -8 8v48a8 8 0 0 0 8 8h48a8 8 0 0 0 8-8v-48a8 8 0 0 0 -8-8zm-8 48h-32v-32h32z"/><path d="m200 320h-48a8 8 0 0 0 -8 8v48a8 8 0 0 0 8 8h48a8 8 0 0 0 8-8v-48a8 8 0 0 0 -8-8zm-8 48h-32v-32h32z"/></svg>