<?xml version="1.0"?>
<svg xmlns="http://www.w3.org/2000/svg" xmlns:xlink="http://www.w3.org/1999/xlink" xmlns:svgjs="http://svgjs.com/svgjs" version="1.1" width="512" height="512" x="0" y="0" viewBox="0 0 512.00002 512" style="enable-background:new 0 0 512 512" xml:space="preserve" class=""><g><path xmlns="http://www.w3.org/2000/svg" d="m348.230469 136.488281c-8.792969 8.832031-15.707031 19.441407-20.226563 31.164063 43.78125 24.671875 60.167969-6.992188 94.925782-.574219 28.652343 5.289063 29.1875 35.023437 78.589843 23.578125-4.671875-45.316406-42.96875-80.65625-89.519531-80.65625-7.265625 0-14.324219.867188-21.089844 2.488281-16.398437-59.101562-70.582031-102.488281-134.910156-102.488281-56.53125 0-105.230469 33.507812-127.335938 81.746094-6.046874-1.140625-12.285156-1.746094-18.664062-1.746094-44.039062 0-81.425781 28.464844-94.769531 68 53.269531 23.125 62.773437-18.503906 100.769531-8 0-11.359375 1.382812-22.640625 4.09375-33.605469 44.386719 8.546875 56.84375-31.464843 96.097656-33.875 60.207032-3.699219 81.5 43.253907 132.039063 53.96875zm0 0" fill="#f3e3f3" fill-rule="evenodd" data-original="#7c594e" style="" class=""/><path xmlns="http://www.w3.org/2000/svg" d="m422.929688 167.078125c-34.757813-6.417969-51.144532 25.246094-94.921876.574219 4.515626-11.722656 11.433594-22.332032 20.222657-31.164063-50.535157-10.714843-71.832031-57.667969-132.035157-53.96875-39.257812 2.410157-51.714843 42.421875-96.101562 33.875-2.710938 10.964844-4.09375 22.246094-4.09375 33.605469-37.996094-10.503906-47.5 31.125-100.769531 8-3.390625 10.046875-5.230469 20.808594-5.230469 32 0 55.226562 44.769531 100 100 100h302c49.707031 0 90-40.296875 90-90 0-3.15625-.160156-6.273438-.476562-9.34375-49.40625 11.445312-49.9375-18.289062-78.59375-23.578125zm0 0" fill="#c8a672" fill-rule="evenodd" data-original="#c1a06c" style="" class=""/><path xmlns="http://www.w3.org/2000/svg" d="m314.246094 33.746094.226562.113281c1.441406.726563 2.976563 1.070313 4.488282 1.070313 3.65625 0 7.183593-2.015626 8.9375-5.507813 2.484374-4.933594.496093-10.945313-4.4375-13.429687l-.222657-.109376c-4.933593-2.484374-10.945312-.496093-13.429687 4.433594-2.480469 4.933594-.496094 10.945313 4.4375 13.429688zm0 0" fill="#000000" data-original="#000000" style="" class=""/><path xmlns="http://www.w3.org/2000/svg" d="m511.453125 189.527344c-.007813-.0625-.011719-.128906-.023437-.191406-5.339844-50.144532-47.890626-89.339844-99.429688-89.339844-4.75 0-9.496094.339844-14.191406 1.007812-9.03125-26.230468-25.082032-49.28125-46.789063-67.074218-.503906-.410157-1.007812-.816407-1.515625-1.222657-4.3125-3.449219-10.605468-2.742187-14.054687 1.570313-3.445313 4.316406-2.742188 10.609375 1.574219 14.054687.4375.351563.875.703125 1.3125 1.0625 18.363281 15.050781 32.046874 34.429688 39.972656 56.460938-12.421875 4.425781-23.585938 11.136719-33.054688 19.601562-16.945312-4.667969-30.515625-13.871093-44.796875-23.578125-2.234375-1.519531-4.480469-3.046875-6.746093-4.558594 1.742187-1.800781 2.816406-4.246093 2.816406-6.949218v-.269532c0-5.523437-4.476563-10-10-10-4.429688 0-8.183594 2.886719-9.496094 6.878907-16.710938-9.296875-35.8125-16.019531-61.453125-14.445313-19.015625 1.167969-32.570313 9.90625-44.421875 18.117188-1.785156-2.738282-4.867188-4.546875-8.378906-4.546875-5.523438 0-10 4.476562-10 10v.269531c0 1.929688.558594 3.726562 1.507812 5.253906-6.445312 3.480469-13.117187 5.78125-21.167968 5.953125 1.363281-3.9375 2.914062-7.832031 4.667968-11.664062.050782-.121094.089844-.238281.140625-.359375 9.179688-19.871094 23.058594-36.691406 39.949219-49.382813 1.136719 4.273438 5.019531 7.429688 9.652344 7.429688 5.523437 0 10-4.476563 10-10v-.269531c0-3.023438-1.34375-5.722657-3.464844-7.558594 18.691406-10.144532 39.90625-15.777344 61.9375-15.777344 8.5 0 17.003906.824219 25.265625 2.453125 5.421875 1.066406 10.675781-2.460937 11.742187-7.878906 1.070313-5.421875-2.457031-10.679688-7.878906-11.746094-9.53125-1.875-19.332031-2.828125-29.128906-2.828125-55.957031 0-107.386719 31.453125-133.085938 80.757812-4.289062-.503906-8.605468-.757812-12.914062-.757812-48.171875 0-89.203125 31.125-104.054688 74.320312-.132812.328126-.246093.664063-.339843 1-3.632813 10.90625-5.605469 22.5625-5.605469 34.679688 0 60.652344 49.347656 110 110 110h302c55.140625 0 100-44.863281 100-100 0-3.539062-.1875-7.03125-.546875-10.472656zm-21.371094-6.886719c-16.011719 2.207031-24.136719-1.496094-31.808593-7.023437 3.363281-1.609376 5.695312-5.035157 5.695312-9.015626v-.269531c0-5.523437-4.480469-10-10-10-5.089844 0-9.285156 3.804688-9.910156 8.726563-5.238282-3.382813-11.382813-6.351563-19.3125-7.816406-16.515625-3.050782-29.519532 1.199218-40.996094 4.945312-13.898438 4.539062-25.253906 8.242188-42.714844.789062 3.613282-6.941406 8.222656-13.300781 13.675782-18.882812.4375-.371094.84375-.785156 1.214843-1.230469 10.058594-9.859375 22.8125-17.140625 37.332031-20.636719.070313-.019531.136719-.042968.207032-.0625 6.050781-1.4375 12.285156-2.167968 18.535156-2.167968 38.152344.003906 70.128906 26.851562 78.082031 62.644531zm-430.453125-67.191406c-.015625.246093-.035156.492187-.035156.742187v.265625c0 5.523438 4.476562 10 10 10s10-4.476562 10-10v-.265625c0-3.8125-2.132812-7.125-5.269531-8.8125 10.945312-4.742187 23.007812-7.378906 35.675781-7.378906 1.511719 0 3.023438.042969 4.539062.121094-4.371093 12.351562-7.082031 25.128906-8.085937 38.210937-13.808594-.710937-24.425781 4.316407-34.035156 8.871094-12.796875 6.0625-24.066407 11.398437-44.113281 5.058594 6.925781-14.929688 17.820312-27.65625 31.324218-36.8125zm352.371094 164.550781h-302c-49.625 0-90-40.375-90-90 0-6.441406.6875-12.726562 1.976562-18.789062 8.738282 2.773437 16.421876 3.882812 23.285157 3.882812 14.984375 0 26.070312-5.25 35.714843-9.820312 9.078126-4.296876 16.132813-7.628907 25.261719-6.917969.285157 5.074219.820313 10.140625 1.613281 15.140625.78125 4.921875 5.03125 8.433594 9.863282 8.433594.523437 0 1.050781-.042969 1.578125-.125 5.457031-.863282 9.175781-5.988282 8.3125-11.441407-1.066407-6.714843-1.605469-13.566406-1.605469-20.363281 0-7.625.664062-15.148438 1.960938-22.542969 23.257812 1.417969 38.671874-9.296875 52.460937-18.890625 11.210937-7.800781 21.796875-15.171875 36.382813-16.066406 31.4375-1.929688 51.339843 11.597656 72.410156 25.921875 12.664062 8.605469 25.660156 17.425781 41.425781 23.3125-11.820313 16.515625-18.640625 36.695313-18.640625 58.261719 0 5.523437 4.476562 10 10 10s10-4.476563 10-10c0-6.257813.734375-12.367188 2.097656-18.25 23.9375 9.875 40.777344 4.378906 55.863282-.546875 10.539062-3.441407 19.640624-6.414063 31.152343-4.289063 8.160157 1.507813 13.53125 5.714844 19.753907 10.585938 9.1875 7.191406 20.078124 15.722656 40.566406 15.722656 3.25 0 6.742187-.21875 10.503906-.6875-1.347656 42.941406-36.675781 77.46875-79.9375 77.46875zm0 0" fill="#000000" data-original="#000000" style="" class=""/><path xmlns="http://www.w3.org/2000/svg" d="m328.089844 93.746094c0 5.523437 4.476562 10 10 10 5.523437 0 10-4.476563 10-10v-.269532c0-5.523437-4.476563-10-10-10-5.523438 0-10 4.476563-10 10zm0 0" fill="#000000" data-original="#000000" style="" class=""/><path xmlns="http://www.w3.org/2000/svg" d="m247.464844 50.167969v.269531c0 5.519531 4.480468 10 10 10 5.523437 0 10-4.480469 10-10v-.269531c0-5.523438-4.476563-10-10-10-5.519532 0-10 4.476562-10 10zm0 0" fill="#000000" data-original="#000000" style="" class=""/><path xmlns="http://www.w3.org/2000/svg" d="m391.09375 139.230469v.265625c0 5.523437 4.476562 10 10 10 5.519531 0 10-4.476563 10-10v-.265625c0-5.523438-4.480469-10-10-10-5.523438 0-10 4.476562-10 10zm0 0" fill="#000000" data-original="#000000" style="" class=""/><path xmlns="http://www.w3.org/2000/svg" d="m138 200c0 5.519531-4.476562 10-10 10s-10-4.480469-10-10c0-5.523438 4.476562-10 10-10s10 4.476562 10 10zm0 0" fill="#000000" data-original="#000000" style="" class=""/></g></svg>
