<svg id="Filled" height="512" viewBox="0 0 512 512" width="512" xmlns="http://www.w3.org/2000/svg"><circle cx="320" cy="160" fill="#e1e3e6" r="64"/><circle cx="192" cy="160" fill="#e1e3e6" r="64"/><path d="m440 40-64 224h-32l64-224z" fill="#b1bd70"/><circle cx="256" cy="248" fill="#e9eef2" r="64"/><circle cx="128" cy="248" fill="#e9eef2" r="64"/><circle cx="384" cy="248" fill="#e9eef2" r="64"/><g fill="#ffb632"><ellipse cx="192" cy="80" rx="24" ry="16"/><ellipse cx="148" cy="180" rx="24" ry="16" transform="matrix(.707 -.707 .707 .707 -83.931 157.373)"/><ellipse cx="260" cy="164" rx="16" ry="24" transform="matrix(.707 -.707 .707 .707 -39.813 231.882)"/><ellipse cx="268" cy="124" rx="24" ry="16" transform="matrix(.707 -.707 .707 .707 -9.186 225.823)"/><ellipse cx="384" cy="168" rx="24" ry="16"/></g><path d="m56 232h400a16 16 0 0 1 16 16v8a216 216 0 0 1 -216 216 216 216 0 0 1 -216-216v-8a16 16 0 0 1 16-16z" fill="#734b39"/><circle cx="176" cy="400" fill="#5e3d30" r="16"/><circle cx="232" cy="424" fill="#5e3d30" r="16"/><circle cx="224" cy="360" fill="#5e3d30" r="16"/><circle cx="176" cy="128" r="8"/><circle cx="208" cy="160" r="8"/><circle cx="336" cy="136" r="8"/><path d="m456 224h-4.1a71.931 71.931 0 0 0 -41.029-42.8 20.037 20.037 0 0 0 5.129-13.2 19.152 19.152 0 0 0 -1.887-8.277l33.579-117.523a8 8 0 0 0 -7.692-10.2h-32a8 8 0 0 0 -7.692 5.8l-22.618 79.164a71.974 71.974 0 0 0 -93.1-19.661c-9.778-4.168-23.227-.6-33.558 9.726a43.765 43.765 0 0 0 -4.772 5.651 72.241 72.241 0 0 0 -27.406-19.463 20.041 20.041 0 0 0 5.146-13.217c0-13.458-14.056-24-32-24s-32 10.542-32 24a20.041 20.041 0 0 0 5.146 13.215 72 72 0 0 0 -43.29 83.046 71.965 71.965 0 0 0 -61.756 47.739h-4.1a24.027 24.027 0 0 0 -24 24v8a224 224 0 0 0 382.392 158.392 222.533 222.533 0 0 0 65.608-158.392v-8a24.028 24.028 0 0 0 -24-24zm-21.388 0h-101.224a56.025 56.025 0 0 1 101.224 0zm-20.578-176h15.36l-28.441 99.541a39.894 39.894 0 0 0 -14.37-3.46zm-30.034 112c9.767 0 16 4.738 16 8s-6.233 8-16 8-16-4.738-16-8 6.233-8 16-8zm-99.03-19.029c9.568-9.568 13.33-21.809 10.524-31.333a56.033 56.033 0 0 1 76.117 28.6l-2.4 8.393c-10.304 3.945-17.211 11.938-17.211 21.369a20.037 20.037 0 0 0 5.129 13.195 72 72 0 0 0 -37.129 33.787 71.979 71.979 0 0 0 -34.218-32.539c5.488-9.826 2.219-24.269-8.655-35.25a43.088 43.088 0 0 0 7.843-6.222zm-22.626-22.628c4.78-4.781 9.967-6.758 13.473-6.758a4.915 4.915 0 0 1 3.5 1.1c2.307 2.308 1.249 10.065-5.657 16.971s-14.663 7.963-16.97 5.658-1.254-10.065 5.654-16.971zm-13.658 34.343a4.916 4.916 0 0 1 3.5-1.1c3.506 0 8.694 1.979 13.475 6.759 6.906 6.905 7.963 14.663 5.657 16.97s-10.065 1.248-16.971-5.658-7.967-14.664-5.661-16.971zm7.314 39.314a55.985 55.985 0 0 1 50.612 32h-101.224a55.985 55.985 0 0 1 50.612-32zm-64-120c9.767 0 16 4.738 16 8s-6.233 8-16 8-16-4.738-16-8 6.233-8 16-8zm0 32a56.111 56.111 0 0 1 47.632 26.547 23.26 23.26 0 0 0 1 8.222 18.9 18.9 0 0 0 -3.264 2.6c-8.739 8.74-7.349 24.12 2.762 36.4a72 72 0 0 0 -48.154 37.247 72.516 72.516 0 0 0 -21.345-25.011c7.517-11.523 7.858-24.769-.007-32.635-8.315-8.314-22.645-7.466-34.595 1.346a56.054 56.054 0 0 1 55.971-54.716zm-49.656 70.343c4.78-4.781 9.967-6.758 13.474-6.758a4.92 4.92 0 0 1 3.5 1.1c2.306 2.307 1.249 10.065-5.658 16.971s-14.664 7.963-16.97 5.658-1.254-10.065 5.654-16.971zm-22.278 18.229a19.524 19.524 0 0 0 5.307 10.056 20.425 20.425 0 0 0 14.769 5.776c6.26 0 13.076-2.308 19.291-6.743a56.4 56.4 0 0 1 19.157 22.339h-101.202a55.976 55.976 0 0 1 42.678-31.428zm343.934 63.428h-88a8 8 0 0 0 0 16h55.426a175.962 175.962 0 0 1 -98.91 142.518 8 8 0 1 0 6.968 14.4 191.936 191.936 0 0 0 108.016-156.918h15.9c-8.206 107.245-98.092 192-207.4 192s-199.194-84.755-207.391-192h15.891a192.487 192.487 0 0 0 45.94 109.227 8 8 0 0 0 12.114-10.454 176.419 176.419 0 0 1 -41.991-98.773h263.437a8 8 0 0 0 0-16h-296v-8a8.009 8.009 0 0 1 8-8h400a8.009 8.009 0 0 1 8 8z"/><path d="m176 376a24 24 0 1 0 24 24 24.027 24.027 0 0 0 -24-24zm0 32a8 8 0 1 1 8-8 8.009 8.009 0 0 1 -8 8z"/><path d="m232 400a24 24 0 1 0 24 24 24.027 24.027 0 0 0 -24-24zm0 32a8 8 0 1 1 8-8 8.009 8.009 0 0 1 -8 8z"/><path d="m248 360a24 24 0 1 0 -24 24 24.027 24.027 0 0 0 24-24zm-32 0a8 8 0 1 1 8 8 8.009 8.009 0 0 1 -8-8z"/><path d="m119.727 293.929a8 8 0 1 0 -15.454 4.142 160.257 160.257 0 0 0 23.547 50.515 8 8 0 1 0 13.11-9.172 144.3 144.3 0 0 1 -21.203-45.485z"/><path d="m351.336 362.154a139.955 139.955 0 0 1 -50.131 30.285 8 8 0 1 0 5.223 15.122 155.862 155.862 0 0 0 55.832-33.715 8 8 0 0 0 -10.924-11.692z"/><path d="m378.689 342.829a8 8 0 0 0 11-2.662 160.579 160.579 0 0 0 18.042-42.1 8 8 0 1 0 -15.455-4.142 144.606 144.606 0 0 1 -16.245 37.9 8 8 0 0 0 2.658 11.004z"/></svg>