<svg id="Filled" height="512" viewBox="0 0 512 512" width="512" xmlns="http://www.w3.org/2000/svg"><path d="m176 208-48 48-96-64 80-80z" fill="#c48669"/><path d="m424 88-64 224h-32l64-224z" fill="#734b39"/><path d="m488 88-64 224h-32l64-224z" fill="#734b39"/><path d="m352 200v-16a96 96 0 0 0 -96-96 96 96 0 0 0 -96 96v16a16 16 0 0 0 -16 16v112h224v-112a16 16 0 0 0 -16-16z" fill="#f7cca9"/><path d="m350.66 168h-14.66a16 16 0 0 0 -16 16 16 16 0 1 1 -32 0 16 16 0 1 0 -32 0 16 16 0 1 1 -32 0 16 16 0 1 0 -32 0 16 16 0 1 1 -32 0 96 96 0 0 1 190.66-16z" fill="#734b39"/><circle cx="256" cy="288" fill="#b37a60" r="64"/><circle cx="128" cy="288" fill="#ff9494" r="64"/><circle cx="384" cy="288" fill="#ffb632" r="64"/><circle cx="256" cy="80" fill="#eb423f" r="24"/><path d="m256 64a8 8 0 0 1 -8-8 8.009 8.009 0 0 0 -8-8h-8a8 8 0 0 1 0-16h8a24.028 24.028 0 0 1 24 24 8 8 0 0 1 -8 8z" fill="#cfdb8c"/><path d="m488 312v32a63.965 63.965 0 0 0 -64 64 63.64 63.64 0 0 1 -8.56 32 64.508 64.508 0 0 1 -15.44 17.97 63.7 63.7 0 0 1 -32 13.54 65.965 65.965 0 0 1 -8 .49h-208a65.965 65.965 0 0 1 -8-.49 63.979 63.979 0 0 1 -56-63.51 63.672 63.672 0 0 0 -8-31.01 64.024 64.024 0 0 0 -56-32.99v-32c38.67 0 38.67-32 77.34-32s38.66 32 77.33 32 38.67-32 77.34-32 38.66 32 77.33 32 38.66-32 77.33-32 38.66 32 77.33 32z" fill="#c48669"/><path d="m488 312v32c-38.67 0-38.67-32-77.33-32s-38.67 32-77.33 32-38.67-32-77.33-32-38.67 32-77.34 32-38.67-32-77.33-32-38.67 32-77.34 32v-32c38.67 0 38.67-32 77.34-32s38.66 32 77.33 32 38.67-32 77.34-32 38.66 32 77.33 32 38.66-32 77.33-32 38.66 32 77.33 32z" fill="#d49073"/><g fill="#b37a60"><path d="m144 440h32v32h-32z"/><path d="m208 440h32v32h-32z"/><path d="m272 440h32v32h-32z"/><path d="m336 440h32v32h-32z"/><path d="m415.44 440a64.508 64.508 0 0 1 -15.44 17.97v-17.97z"/><path d="m144 376h32v32h-32z"/><path d="m112 440v17.97a63.565 63.565 0 0 1 -5.26-4.71 64.227 64.227 0 0 1 -10.18-13.26z"/><path d="m112 376v32h-24a63.672 63.672 0 0 0 -8-31.01v-.99z"/><path d="m208 376h32v32h-32z"/><path d="m272 376h32v32h-32z"/><path d="m336 376h32v32h-32z"/><path d="m432 376v.99a63.672 63.672 0 0 0 -8 31.01h-24v-32z"/></g><path d="m176 368h-32a8 8 0 0 0 -8 8v32a8 8 0 0 0 8 8h32a8 8 0 0 0 8-8v-32a8 8 0 0 0 -8-8zm-8 32h-16v-16h16z"/><path d="m240 368h-32a8 8 0 0 0 -8 8v32a8 8 0 0 0 8 8h32a8 8 0 0 0 8-8v-32a8 8 0 0 0 -8-8zm-8 32h-16v-16h16z"/><path d="m304 368h-32a8 8 0 0 0 -8 8v32a8 8 0 0 0 8 8h32a8 8 0 0 0 8-8v-32a8 8 0 0 0 -8-8zm-8 32h-16v-16h16z"/><path d="m368 368h-32a8 8 0 0 0 -8 8v32a8 8 0 0 0 8 8h32a8 8 0 0 0 8-8v-32a8 8 0 0 0 -8-8zm-8 32h-16v-16h16z"/><path d="m488 304c-15.558 0-23.5-5.87-32.078-12.933.042-1.017.078-2.037.078-3.067a71.54 71.54 0 0 0 -7.626-32.192l47.318-165.608a8 8 0 0 0 -7.692-10.2h-32a8 8 0 0 0 -7.692 5.8l-38.562 134.977a71.355 71.355 0 0 0 -14.262-3.85l36.208-126.727a8 8 0 0 0 -7.692-10.2h-32a8 8 0 0 0 -7.692 5.8l-24.918 87.211a103.949 103.949 0 0 0 -71.766-88.111 32.009 32.009 0 0 0 -24.745-36.151 24.041 24.041 0 0 0 -22.879-16.749h-8a8 8 0 0 0 0 16h8a7.963 7.963 0 0 1 5.158 1.894 32.013 32.013 0 0 0 -20.781 35.015 104.207 104.207 0 0 0 -69.9 76.381l-35.818-53.728a8 8 0 0 0 -12.313-1.219l-80 80a8 8 0 0 0 1.219 12.313l52.945 35.3a71.834 71.834 0 0 0 -24.51 54.044c0 1.03.036 2.051.078 3.068-8.578 7.063-16.521 12.932-32.078 12.932a8 8 0 0 0 -8 8v32a8 8 0 0 0 8 8 56.063 56.063 0 0 1 56 56 72.081 72.081 0 0 0 72 72h208a72.081 72.081 0 0 0 72-72 56.063 56.063 0 0 1 56-56 8 8 0 0 0 8-8v-32a8 8 0 0 0 -8-8zm-287.057-5.758a56 56 0 1 1 110.115-.006 91.037 91.037 0 0 1 -11.288-8.4c-10.1-8.36-21.55-17.836-43.76-17.836s-33.667 9.477-43.77 17.837a90.991 90.991 0 0 1 -11.297 8.405zm-46.616-87.9a7.985 7.985 0 0 1 5.673-2.342h16a24.028 24.028 0 0 0 24-24 8 8 0 0 1 16 0 24 24 0 0 0 48 0 8 8 0 1 1 16 0 24 24 0 0 0 48 0 8.009 8.009 0 0 1 8-8h7.639c.235 2.638.361 5.305.361 8v16a8 8 0 0 0 8 8 8.009 8.009 0 0 1 8 8v4.128a72.373 72.373 0 0 0 -40 34.951 71.946 71.946 0 0 0 -128 0 72.373 72.373 0 0 0 -40-34.951v-4.128a7.968 7.968 0 0 1 2.327-5.653zm175.973 93.579a56 56 0 1 1 108.95-25.006c-7.3-4.01-16.289-6.915-28.582-6.915-22.217 0-33.668 9.478-43.771 17.839-9.18 7.599-17.109 14.161-33.557 14.161q-1.57 0-3.04-.079zm131.735-207.921h15.359l-40.823 142.877a72.59 72.59 0 0 0 -12.339-10.561zm-64 0h15.36l-34.34 120.189c-1.023.07-2.043.154-3.054.266v-.455a23.915 23.915 0 0 0 -7.33-17.228zm-142.035-32a16 16 0 1 1 -16 16 16.019 16.019 0 0 1 16-16zm-62.221 57.774a87.77 87.77 0 0 1 37.008-22.105 31.942 31.942 0 0 0 50.422.006 87.35 87.35 0 0 1 59.5 60.325h-4.709a24.028 24.028 0 0 0 -24 24 8 8 0 1 1 -16 0 24 24 0 0 0 -48 0 8 8 0 0 1 -16 0 24 24 0 0 0 -48 0 8.009 8.009 0 0 1 -8 8h-8v-8a87.4 87.4 0 0 1 25.779-62.226zm-149.222 68.983 66.2-66.2 41.243 61.865v6.937a24 24 0 0 0 -16 22.641v.455a72.383 72.383 0 0 0 -8-.455 71.533 71.533 0 0 0 -33.292 8.19zm83.443 41.243a56.026 56.026 0 0 1 53.7 71.921q-1.465.078-3.028.079c-16.455 0-24.386-6.565-33.57-14.164-10.102-8.36-21.552-17.836-43.762-17.836-12.3 0-21.294 2.906-28.592 6.917a56.081 56.081 0 0 1 55.252-46.917zm-60.23 70.163c9.184-7.599 17.116-14.163 33.57-14.163s24.377 6.562 33.559 14.161c10.101 8.361 21.554 17.839 43.771 17.839s33.667-9.477 43.77-17.837c9.184-7.6 17.116-14.163 33.57-14.163s24.377 6.562 33.559 14.161c10.102 8.361 21.554 17.839 43.771 17.839s33.66-9.476 43.76-17.836c9.184-7.6 17.115-14.164 33.57-14.164s24.377 6.562 33.559 14.161c8.813 7.3 18.653 15.439 35.771 17.4v15.839c-11.3-1.773-18.012-7.314-25.565-13.564-10.1-8.36-21.552-17.837-43.766-17.837s-33.664 9.477-43.767 17.837c-9.183 7.6-17.113 14.163-33.565 14.163s-24.382-6.564-33.564-14.163c-10.103-8.359-21.553-17.836-43.767-17.836s-33.664 9.477-43.767 17.837c-9.183 7.6-17.113 14.163-33.566 14.163s-24.384-6.564-33.568-14.163c-10.105-8.36-21.553-17.837-43.769-17.837s-33.665 9.477-43.768 17.837c-7.553 6.25-14.268 11.791-25.568 13.563v-15.841c17.117-1.959 26.957-10.102 35.77-17.396zm27.771 97.837a71.425 71.425 0 0 0 -3.67-16h12.129v16zm72.459 64h-16v-16h16zm64 0h-16v-16h16zm64 0h-16v-16h16zm48 0v-16h16v16zm64-64v-16h12.129a71.425 71.425 0 0 0 -3.67 16zm20.175-32h-28.175a8 8 0 0 0 -8 8v32a8 8 0 0 0 8 8h15.419a55.52 55.52 0 0 1 -4.833 16h-10.586a8 8 0 0 0 -8 8v13.917a55.821 55.821 0 0 1 -16 7.742v-21.659a8 8 0 0 0 -8-8h-32a8 8 0 0 0 -8 8v24h-16v-24a8 8 0 0 0 -8-8h-32a8 8 0 0 0 -8 8v24h-16v-24a8 8 0 0 0 -8-8h-32a8 8 0 0 0 -8 8v24h-16v-24a8 8 0 0 0 -8-8h-32a8 8 0 0 0 -8 8v21.659a55.821 55.821 0 0 1 -16-7.742v-13.917a8 8 0 0 0 -8-8h-10.586a55.52 55.52 0 0 1 -4.833-16h15.419a8 8 0 0 0 8-8v-32a8 8 0 0 0 -8-8h-28.175a72.468 72.468 0 0 0 -28.241-24.675 113.471 113.471 0 0 0 12.185-9.162c9.183-7.599 17.114-14.163 33.567-14.163s24.385 6.564 33.568 14.163c10.1 8.36 21.554 17.837 43.769 17.837s33.665-9.477 43.767-17.837c9.183-7.6 17.114-14.163 33.566-14.163s24.383 6.564 33.565 14.163c10.1 8.36 21.552 17.837 43.766 17.837s33.663-9.477 43.763-17.837c9.183-7.6 17.113-14.163 33.565-14.163s24.382 6.564 33.565 14.163a113.337 113.337 0 0 0 12.183 9.161 72.481 72.481 0 0 0 -28.238 24.676z"/></svg>