<?xml version="1.0"?>
<svg xmlns="http://www.w3.org/2000/svg" xmlns:xlink="http://www.w3.org/1999/xlink" xmlns:svgjs="http://svgjs.com/svgjs" version="1.1" width="512" height="512" x="0" y="0" viewBox="0 0 512 512" style="enable-background:new 0 0 512 512" xml:space="preserve" class=""><g><g xmlns="http://www.w3.org/2000/svg" id="filled_outline" data-name="filled outline"><path d="m65.356 240.953-1.883 120 384.527-.953-.471-104a135.985 135.985 0 0 0 -135.75-128h-111.558a135.985 135.985 0 0 0 -135.75 128" fill="#da9c2a" data-original="#da922a" style="" class=""/><path d="m328.734 488h-145.468a120 120 0 0 1 -119.793-127.047l1.883-32a120 120 0 0 1 119.793-112.953h141.7a120 120 0 0 1 119.795 112.953l1.883 32a120 120 0 0 1 -119.793 127.047z" fill="#a05800" data-original="#ffb1b5" style="" class=""/><path d="m272 488 39.938-26.625a125.9 125.9 0 0 0 56.062-104.753v-16.184a60.438 60.438 0 0 0 -60.438-60.438h-64a91.562 91.562 0 0 0 -91.562 91.562 60.438 60.438 0 0 0 60.438 60.438 60.437 60.437 0 0 0 52.832-31.087l8.838-15.908a16.831 16.831 0 0 0 -14.708-25.005 16.831 16.831 0 0 0 -15.627 10.58l-4.573 11.428a28.622 28.622 0 0 1 -26.578 17.992 28.621 28.621 0 0 1 -28.622-28.622v-.306a59.071 59.071 0 0 1 59.072-59.072h64.306a28.621 28.621 0 0 1 28.622 28.622 125.9 125.9 0 0 1 -56.062 104.753l-63.938 42.625z" fill="#fffaf1" data-original="#fbd699" style="" class=""/><path d="m164 161.578h16v28.844h-16z" fill="#a45e14" transform="matrix(.555 -.832 .832 .555 -69.849 221.485)" data-original="#a45e14" style="" class=""/><path d="m213.578 168h28.844v16h-28.844z" fill="#a45e14" transform="matrix(.832 -.555 .555 .832 -59.335 156.031)" data-original="#a45e14" style="" class=""/><path d="m292 161.578h16v28.844h-16z" fill="#a45e14" transform="matrix(.555 -.832 .832 .555 -12.851 327.988)" data-original="#a45e14" style="" class=""/><path d="m341.578 168h28.844v16h-28.844z" fill="#a45e14" transform="matrix(.832 -.555 .555 .832 -37.837 227.032)" data-original="#a45e14" style="" class=""/><g fill="#f388a2"><path d="m112 288h16v16h-16z" fill="#f388a2" data-original="#f388a2" style="" class=""/><path d="m264 248h16v16h-16z" fill="#f388a2" data-original="#f388a2" style="" class=""/><path d="m368 256h16v16h-16z" fill="#f388a2" data-original="#f388a2" style="" class=""/><path d="m400 320h16v16h-16z" fill="#f388a2" data-original="#f388a2" style="" class=""/><path d="m384 408h16v16h-16z" fill="#f388a2" data-original="#f388a2" style="" class=""/><path d="m160 256h16v16h-16z" fill="#f388a2" data-original="#f388a2" style="" class=""/><path d="m128 424h16v16h-16z" fill="#f388a2" data-original="#f388a2" style="" class=""/><path d="m96 376h16v16h-16z" fill="#f388a2" data-original="#f388a2" style="" class=""/></g><path d="m300.69 98.2a48.787 48.787 0 0 1 -8.19 27.06 42.1 42.1 0 0 1 -35.03 18.74h-2.94a42.092 42.092 0 0 1 -35.03-18.74 48.8 48.8 0 0 1 2.09-57.01l34.41-44.25 34.41 44.25a48.718 48.718 0 0 1 10.28 29.95z" fill="#983520" data-original="#eaeae8" style="" class=""/><path d="m300.69 98.2a48.787 48.787 0 0 1 -8.19 27.06 42.1 42.1 0 0 1 -35.03 18.74h-1.47l7.58-12.63a53.189 53.189 0 0 0 0-54.74 53.134 53.134 0 0 1 -7.58-27.36v-25.27l34.41 44.25a48.718 48.718 0 0 1 10.28 29.95z" fill="#ff6969" data-original="#dbdbdb" style="" class=""/><path d="m456.513 360.483-.983-104.519c0-.145-.006-.289-.014-.433a143.973 143.973 0 0 0 -143.736-135.531h-7.441a56.7 56.7 0 0 0 -7.611-56.666l-34.413-44.246a8 8 0 0 0 -12.63 0l-34.413 44.246a56.7 56.7 0 0 0 -7.611 56.666h-7.441a144.136 144.136 0 0 0 -143.736 135.53c-.007.131-.012.262-.013.394l-1 104.9a127.995 127.995 0 0 0 127.795 135.176h145.468a128 128 0 0 0 127.779-135.517zm-170.673-239.665a34.047 34.047 0 0 1 -13.872 11.949 61.065 61.065 0 0 0 -1.528-60.25 45.2 45.2 0 0 1 -6.44-23.25v-1.95l20.1 25.84a40.731 40.731 0 0 1 1.74 47.661zm-57.94-47.661 20.1-25.84v1.95a61.206 61.206 0 0 0 8.72 31.483 45.107 45.107 0 0 1 0 46.5l-5.163 8.606a34 34 0 0 1 -25.4-15.038 40.731 40.731 0 0 1 1.743-47.661zm-27.68 62.843h17.631a49.962 49.962 0 0 0 36.677 16h2.944a49.962 49.962 0 0 0 36.677-16h17.631a127.973 127.973 0 0 1 127.751 120.256l.086 19.208a128.138 128.138 0 0 0 -112.765-67.464h-141.7a128.143 128.143 0 0 0 -112.869 67.645l.185-19.369a128.122 128.122 0 0 1 127.752-120.276zm42.2 344 41.956-27.973a133.9 133.9 0 0 0 59.624-111.407 36.662 36.662 0 0 0 -36.62-36.62h-64.31a66.977 66.977 0 0 0 -66.037 55.255 67.892 67.892 0 0 0 -1.033 11.815v.31a36.624 36.624 0 0 0 70.628 13.6l4.578-11.448a8.807 8.807 0 0 1 5.322-5.054l5.716-.014a8.74 8.74 0 0 1 5.246 4.832 8.634 8.634 0 0 1 -.372 7.828l-8.841 15.9a52.436 52.436 0 0 1 -98.277-25.464 84.655 84.655 0 0 1 .585-9.895 83.5 83.5 0 0 1 82.975-73.665h64a52.5 52.5 0 0 1 52.44 52.44v16.18c0 1.133-.019 2.256-.046 3.353a118.059 118.059 0 0 1 -52.454 94.741l-37.922 25.286zm167.8-35.165a110.942 110.942 0 0 1 -81.486 35.165h-30.314l17.956-11.973a134.093 134.093 0 0 0 59.572-107.627c.031-1.256.052-2.513.052-3.78v-16.18a68.517 68.517 0 0 0 -68.44-68.44h-64a99.507 99.507 0 0 0 -98.86 87.79 100.676 100.676 0 0 0 -.7 11.77 68.436 68.436 0 0 0 128.262 33.24l8.842-15.9a24.609 24.609 0 0 0 1.023-22.062 24.915 24.915 0 0 0 -16.927-14.164 8.031 8.031 0 0 0 -1.84-.214h-.04l-7.9.02a7.965 7.965 0 0 0 -1.858.219 24.781 24.781 0 0 0 -17.22 14.911l-4.568 11.425a20.623 20.623 0 0 1 -39.774-7.655v-.31a51.894 51.894 0 0 1 .786-9.016 50.992 50.992 0 0 1 50.284-42.054h64.31a20.643 20.643 0 0 1 20.62 20.62 117.9 117.9 0 0 1 -52.5 98.094l-61.923 41.286h-30.311a112 112 0 0 1 -111.807-118.577l1.883-32a112.114 112.114 0 0 1 111.806-105.423h141.7a112.114 112.114 0 0 1 111.81 105.423l1.883 32a110.944 110.944 0 0 1 -30.319 83.412z" fill="#000000" data-original="#000000" style="" class=""/><path d="m164 161.578h16v28.844h-16z" transform="matrix(.555 -.832 .832 .555 -69.849 221.485)" fill="#000000" data-original="#000000" style="" class=""/><path d="m213.578 168h28.844v16h-28.844z" transform="matrix(.832 -.555 .555 .832 -59.335 156.031)" fill="#000000" data-original="#000000" style="" class=""/><path d="m292 161.578h16v28.844h-16z" transform="matrix(.555 -.832 .832 .555 -12.851 327.988)" fill="#000000" data-original="#000000" style="" class=""/><path d="m341.578 168h28.844v16h-28.844z" transform="matrix(.832 -.555 .555 .832 -37.837 227.032)" fill="#000000" data-original="#000000" style="" class=""/><path d="m112 288h16v16h-16z" fill="#000000" data-original="#000000" style="" class=""/><path d="m264 248h16v16h-16z" fill="#000000" data-original="#000000" style="" class=""/><path d="m368 256h16v16h-16z" fill="#000000" data-original="#000000" style="" class=""/><path d="m400 320h16v16h-16z" fill="#000000" data-original="#000000" style="" class=""/><path d="m384 408h16v16h-16z" fill="#000000" data-original="#000000" style="" class=""/><path d="m160 256h16v16h-16z" fill="#000000" data-original="#000000" style="" class=""/><path d="m128 424h16v16h-16z" fill="#000000" data-original="#000000" style="" class=""/><path d="m96 376h16v16h-16z" fill="#000000" data-original="#000000" style="" class=""/></g></g></svg>
