<svg height="512pt" viewBox="0 -50 512.00022 512" width="512pt" xmlns="http://www.w3.org/2000/svg"><path d="m253.875 271.207031c-18.933594-14.875-33.269531-26.238281-42.230469-33.941406-57.164062 40.1875-15.695312 10.378906-132.835937 95.839844-12.535156 9.789062-13.847656 28.265625-2.824219 39.730469 5.238281 5.449218 12.273437 8.238281 19.34375 8.238281 5.84375 0 11.699219-1.898438 16.601563-5.765625 116.980468-86.53125 88.96875-66.046875 141.945312-104.101563zm0 0" fill="#ffb52d"/><path d="m498.5 94.3125s0 0 0-.011719c-4.066406-12.789062-10.195312-24.96875-18.542969-36.207031.203125 0-5.558593-6.949219-5.691406-7.101562-61.519531-70.074219-167.617187-50.191407-205.371094 25.46875-2.921875 5.855468-5.222656 8.921874-5.222656 8.921874-1.203125 2.042969-2.738281 4.667969-7.867187 13.414063l-10.15625-17.316406c0-.011719-.007813-.019531-.019532-.03125-.980468-1.851563-1.828125-3.617188-2.511718-4.988281-29.703126-59.515626-106.179688-88.765626-170.746094-53.464844-75.28125 41.707031-86.378906 142.644531-25.441406 199.730468.019531.03125.050781.050782.074218.070313l150.082032 156.082031c32.183593 33.453125 85.714843 33.441406 117.878906-.019531l6.386718-6.652344 26.21875-27.269531h.007813l37.183594-38.675781v-.007813c8.621093-8.972656 16.507812-17.136718 23.722656-24.585937 82.148437-84.78125 78.441406-78.007813 92.089844-118.980469 5.84375-23.910156 4.75-46.90625-2.074219-68.375zm-62.90625 77.019531c-4.191406 6.019531.027344 1.074219-73.433594 77.375-6.652344 6.910157-13.9375 14.480469-21.925781 22.785157l-36.988281 38.480468-.011719.011719-22.109375 22.988281-6.671875 6.945313c-10.054687 10.453125-26.789063 10.464843-36.855469 0-161.242187-167.667969-150.59375-156.640625-152.207031-158.152344-30.785156-28.804687-28.191406-78.410156 5.382813-103.839844 35.269531-26.640625 82.976562-13.519531 102.644531 24.785157 8.625 16.574218 22.816406 28.527343 40.0625 34.1875 14.449219 4.75 30.242187 4.792968 44.722656.113281 12.1875-3.933594 23.449219-11.230469 32.164063-21.855469l.011718-.011719c.355469-.558593.714844-1.113281 1.0625-1.652343 10.707032-16.859376 15.261719-28.363282 33.5625-39.492188h.011719c61.546875-37.753906 134.121094 36.363281 90.578125 97.332031zm0 0" fill="#ffc14f"/><path d="m408.484375 281.667969c-7.214844 7.449219-15.101563 15.613281-23.722656 24.585937v.007813l-37.183594 38.675781h-.007813l-26.21875 27.269531-40.226562-39.234375 22.109375-22.988281.011719-.011719 36.988281-38.480468c7.988281-8.304688 15.273437-15.875 21.925781-22.785157zm0 0" fill="#ffb52d"/><path d="m498.5 94.3125s0 0 0-.011719c-4.097656-12.921875-10.296875-25.132812-18.542969-36.207031.203125 0-5.558593-6.941406-5.691406-7.101562-57.351563-66.160157-157.460937-52.601563-199.699219 15.335937 0 0 1.800782-2.597656-70.257812 120.339844l-4.738282 8.101562c-5.140624 10.574219-4.25 22.765625 1.703126 32.296875 4.394531 7.132813 41.78125 35.445313 101.972656 82.90625l44.324218 34.964844h.007813c48.214844 38.019531 46.253906 37.007812 51.3125 38.96875 0 .007812.011719.007812.011719.007812 28.1875 10.964844 50.605468-26.65625 26.214844-46.152343l-40.355469-31.5v-.007813l-44.527344-34.761718c-10.882813-8.488282-19.855469-15.5-27.425781-21.414063-53.386719-41.667969-52.160156-40.746094-52.160156-40.746094-3.863282-3.394531-4.894532-9.054687-2.402344-13.621093.660156-1.023438 53.34375-82.382813 55.789062-86.367188 9.113282-14.722656 14.824219-25.523438 30.96875-35.34375h.011719c61.253906-37.570312 134.335937 36.078125 90.578125 97.332031-4.355469 6.261719-6.03125 7.234375-23.144531 25.082031l44.015625 35.230469c13.835937-14.34375 45.101562-40.152343 47.738281-93.316406.746094-14.84375-1.175781-29.78125-5.703125-44.015625zm0 0" fill="#ffc14f"/><path d="m312.808594 250.078125c-19.289063 7.683594-36.28125 5.691406-49.542969.746094-14.886719-5.550781-27.445313-16-36.152344-29.292969l-22.804687-34.863281c72.054687-122.929688 70.257812-120.339844 70.257812-120.339844l39.46875 43.015625c-2.53125 4.125-55.128906 85.34375-55.789062 86.367188-2.492188 4.566406-1.460938 10.226562 2.402344 13.621093 0 0-1.226563-.921875 52.160156 40.746094zm0 0" fill="#ffb52d"/><path d="m298.71875 239.074219c-.449219-.328125-40.359375-31.511719-40.675781-31.777344 0 0-16.898438-27.363281-33.777344-54.671875-13.152344-21.265625-33.636719-54.429688-33.636719-54.429688-17.5625-30.183593-60.96875-46.722656-96.851562-22.46875-1.113282.746094-2.21875 1.535157-3.308594 2.359376-32.441406 24.585937-37.621094 73.925781-4.292969 104.851562l-39.246093 39.789062-.222657.234376c-62.359375-58.320313-49.3125-162.292969 29.925781-202.203126 30.539063-15.296874 63.992188-16.347656 93.632813-6.5 30.835937 10.25 57.542969 32.289063 72.542969 62.367188 1.59375 2.730469 2.839844 4.855469 2.839844 4.855469 3.914062 6.652343 20.96875 35.789062 32.554687 55.53125 2.789063 4.769531 5.609375 9.574219 8.5625 14.621093 6.835937 11.65625 14.4375 24.644532 24.386719 41.617188 14.488281 24.746094-8.855469 42.246094-12.433594 45.824219zm0 0" fill="#ffc14f"/><path d="m364.695312 259.464844c2.457032 3.792968 3.894532 6.011718 3.894532 6.011718-1.640625-2.820312-2.910156-4.78125-3.894532-6.011718zm0 0" fill="#ffd07a"/><path d="m298.71875 239.074219c-.449219-.328125-40.359375-31.511719-40.675781-31.777344 0 0-16.898438-27.363281-33.777344-54.671875-13.152344-21.265625-33.636719-54.429688-33.636719-54.429688-17.5625-30.183593-60.96875-46.722656-96.851562-22.46875 11.546875-21.722656 29.875-40.53125 54.714844-53.039062 7.132812-3.566406 14.417968-6.363281 21.773437-8.429688 30.835937 10.25 57.542969 32.289063 72.542969 62.367188 1.59375 2.730469 2.839844 4.855469 2.839844 4.855469 3.914062 6.652343 20.96875 35.789062 32.554687 55.53125 2.789063 4.769531 5.609375 9.574219 8.5625 14.621093 6.835937 11.65625 14.4375 24.644532 24.386719 41.617188 14.488281 24.746094-8.855469 42.246094-12.433594 45.824219zm0 0" fill="#ffd07a"/><path d="m280.972656 173.5625c0 7.226562-5.859375 13.085938-13.085937 13.085938-7.226563 0-13.085938-5.859376-13.085938-13.085938 0-7.230469 5.859375-13.089844 13.085938-13.089844 7.226562 0 13.085937 5.859375 13.085937 13.089844zm0 0"/><path d="m484.472656 100.25c0 7.230469-5.859375 13.089844-13.089844 13.089844-7.226562 0-13.085937-5.859375-13.085937-13.089844 0-7.226562 5.859375-13.085938 13.085937-13.085938 7.230469 0 13.089844 5.859376 13.089844 13.085938zm0 0"/><path d="m478.339844 176.371094c0 7.226562-5.859375 13.085937-13.085938 13.085937-7.226562 0-13.085937-5.859375-13.085937-13.085937 0-7.226563 5.859375-13.085938 13.085937-13.085938 7.226563 0 13.085938 5.859375 13.085938 13.085938zm0 0"/><path d="m304.132812 94.375c0 7.230469-5.859374 13.089844-13.085937 13.089844s-13.085937-5.859375-13.085937-13.089844c0-7.226562 5.859374-13.085938 13.085937-13.085938s13.085937 5.859376 13.085937 13.085938zm0 0"/><path d="m358.796875 42.523438c0 7.226562-5.859375 13.085937-13.085937 13.085937-7.230469 0-13.089844-5.859375-13.089844-13.085937 0-7.230469 5.859375-13.089844 13.089844-13.089844 7.226562 0 13.085937 5.859375 13.085937 13.089844zm0 0"/><path d="m436.449219 45.078125c0 7.226563-5.859375 13.085937-13.085938 13.085937-7.230469 0-13.089843-5.859374-13.089843-13.085937 0-7.230469 5.859374-13.089844 13.089843-13.089844 7.226563 0 13.085938 5.859375 13.085938 13.089844zm0 0"/><path d="m424.699219 236.144531c0 7.226563-5.859375 13.085938-13.085938 13.085938-7.230469 0-13.089843-5.859375-13.089843-13.085938 0-7.230469 5.859374-13.089843 13.089843-13.089843 7.226563 0 13.085938 5.859374 13.085938 13.089843zm0 0"/><path d="m233.460938 95.90625c0-7.222656-5.855469-13.089844-13.089844-13.089844-7.222656 0-13.089844 5.867188-13.089844 13.089844 0 7.234375 5.867188 13.089844 13.089844 13.089844 7.234375 0 13.089844-5.855469 13.089844-13.089844zm0 0"/><path d="m178.796875 44.054688c0-7.226563-5.855469-13.089844-13.089844-13.089844-7.222656 0-13.085937 5.863281-13.085937 13.089844 0 7.230468 5.863281 13.085937 13.085937 13.085937 7.234375 0 13.089844-5.855469 13.089844-13.085937zm0 0"/><path d="m101.144531 46.609375c0-7.226563-5.855469-13.089844-13.089843-13.089844-7.222657 0-13.085938 5.863281-13.085938 13.089844 0 7.230469 5.863281 13.085937 13.085938 13.085937 7.234374 0 13.089843-5.855468 13.089843-13.085937zm0 0"/><path d="m53.121094 101.78125c0-7.222656-5.851563-13.089844-13.085938-13.089844-7.226562 0-13.089844 5.867188-13.089844 13.089844 0 7.234375 5.863282 13.089844 13.089844 13.089844 7.234375 0 13.085938-5.855469 13.085938-13.089844zm0 0"/><path d="m48.71875 195.078125c7.234375 0 13.089844-5.855469 13.089844-13.089844 0-7.222656-5.855469-13.089843-13.089844-13.089843-7.222656 0-13.089844 5.867187-13.089844 13.089843 0 7.234375 5.867188 13.089844 13.089844 13.089844zm0 0"/><path d="m92.847656 244.316406c0 7.234375 5.863282 13.085938 13.089844 13.085938 7.234375 0 13.085938-5.851563 13.085938-13.085938 0-7.226562-5.851563-13.089844-13.085938-13.089844-7.226562 0-13.089844 5.863282-13.089844 13.089844zm0 0"/><path d="m162.835938 317.371094c0 7.234375 5.867187 13.085937 13.089843 13.085937 7.234375 0 13.089844-5.851562 13.089844-13.085937 0-7.226563-5.855469-13.089844-13.089844-13.089844-7.222656 0-13.089843 5.863281-13.089843 13.089844zm0 0"/><path d="m116.8125 347.34375c0 7.226562-5.859375 13.085938-13.085938 13.085938-7.226562 0-13.085937-5.859376-13.085937-13.085938s5.859375-13.085938 13.085937-13.085938c7.226563 0 13.085938 5.859376 13.085938 13.085938zm0 0"/><path d="m242.769531 376.46875c0 7.222656 5.863281 13.085938 13.085938 13.085938 7.226562 0 13.089843-5.863282 13.089843-13.085938 0-7.234375-5.863281-13.089844-13.089843-13.089844-7.222657 0-13.085938 5.855469-13.085938 13.089844zm0 0"/><path d="m229.976562 200.574219c-11.21875 0-17.074218 13.136719-10.035156 21.496093 7.800782 9.296876 23.125 3.832032 23.125-8.40625 0-7.171874-5.828125-13.089843-13.089844-13.089843zm0 0"/><path d="m288.550781 277.164062c7.226563 0 13.089844-5.863281 13.089844-13.089843 0-7.191407-5.800781-13.085938-13.089844-13.085938-8.199219 0-13.851562 7.386719-13.035156 14.121094.511719 6.742187 6.160156 12.054687 13.035156 12.054687zm0 0"/><path d="m373.164062 322.652344c0 7.226562-5.859374 13.085937-13.089843 13.085937-7.226563 0-13.085938-5.859375-13.085938-13.085937 0-7.230469 5.859375-13.089844 13.085938-13.089844 7.230469 0 13.089843 5.859375 13.089843 13.089844zm0 0"/><path d="m473.527344 39.015625c0-.019531-.058594-.0625-.058594-.082031-47.410156-47.410156-119.839844-51.636719-172.632812-12.046875v.011719c-8.929688 6.523437-11.039063 8.128906-14.417969 11.679687-3.035157 3.1875-2.554688 8-.125 10.429687 2.953125 3.320313 8.144531 3.464844 11.199219.234376 13.585937-14.34375 37.9375-26.410157 56.769531-30.8125 70.796875-16.570313 137.820312 35.851562 142.175781 106.339843 1.140625 15.808594-2.535156 35.914063-3.554688 36.9375-2.941406 11.925781-9.054687 25.679688-17.359374 37.386719v.007812c-7.523438 10.65625-81.292969 86.246094-91.488282 96.851563l-32.378906-25.277344c94.410156-98.210937 90.28125-92.96875 96.175781-104.78125 14.53125-27.839843 10.023438-66.832031-18.699219-91.453125-25.113281-21.242187-61.097656-25.761718-92.570312-4.097656-15.179688 10.503906-21.792969 22.628906-32.621094 40.644531l-16.851562 26.042969c-7.222656-12.3125-2.664063-4.546875-22.40625-38.234375 12.914062-22.042969 15.613281-27.136719 15.613281-27.136719 3.097656-5.046875-.625-11.574218-6.539063-11.574218-2.542968 0-5.078124 1.265624-6.539062 3.6875-5.476562 9.03125-8.449219 16.09375-11.597656 19.382812-1.910156-2.546875-4.25-7.253906-5.640625-10.117188-34.617188-69.386718-128.105469-98.71875-197.789063-46.007812-65.0625 49.320312-70.101562 145.34375-10.574218 201.222656 2.042968 2.144532-7.304688-7.59375 69.253906 72.023438-.164063.109375-36.78125 26.789062-36.78125 26.789062-25.863282 20.1875-11.300782 61.671875 21.242187 61.671875 7.660157 0 15.203125-2.605469 21.25-7.335937l42.1875-31.316406 32.800781 34.105468c29.8125 30.980469 76.21875 35.691406 111.082032 14.335938 4.046875-2.484375 4.8125-8.050782 1.664062-11.597656-2.472656-2.789063-6.589844-3.359376-9.785156-1.410157-28.90625 17.625-67.285156 13.652344-91.917969-11.953125-.4375-.460937-149.921875-155.917968-150.371093-156.367187-25.144532-23.523438-38.550782-56.738281-36.769532-91.121094 3.605469-69.261719 68.628906-124.558594 141.988282-107.488281 33.914062 7.941406 63.257812 30.910156 78.492187 61.460937 2.859375 5.382813 69.53125 117.632813 70.890625 122.414063 3.125 10.828125-.789062 18.574218-8.605469 26.515625-1.019531-.800781-32.726562-25.585938-34.390625-26.875 0 0-33.359375-53.976563-36.660156-59.332031h-.011719c-29.648437-48.183594-26.207031-42.1875-27.484375-44.648438-9.847656-19.761719-29.027344-34.679688-51.292968-39.898438-44.832032-10.496093-89.65625 22.773438-92.097657 69.945313-1.164062 22.335937 7.53125 43.90625 23.855469 59.179687.226562.226563 3.75 3.875 9.460938 9.808594 2.820312 2.933594 7.492187 2.972656 10.363281.101563 3.257812-2.898438 3.453125-7.9375.417969-11.074219-7.285157-7.558594-9.339844-9.65625-9.769532-10.023438-63.949218-59.832031 42.742188-159.359374 94.421875-72.328124l30.273438 48.898437c-.183594.308594-22.5 38.359375-22.640625 38.683594-9.257813 19.046875-1.023438 37.988281 6.304687 45.386719l-29.785156 20.9375c-21.394531-22.265626-37.039063-38.53125-48.441406-50.382813-4.976563-5.179687-13.425781-1.820313-13.425781 5.117187 0 4.484376-7.457032-4.738281 124.746093 132.757813 13.085938 13.585937 34.808594 13.609375 47.898438-.011719l23.96875-24.921875 32.238281 25.421875-21.183594 22.027344c-4.683594 4.875-1.191406 12.976562 5.53125 12.976562 2 0 4.003906-.785156 5.515625-2.359374l22.222657-23.109376c42.902343 33.859376 42.820312 34.613282 50.914062 36.820313 35.289062 10.464844 60.84375-36.332031 30.652344-60.363281l-33.675782-26.277344c87.808594-91.316406 87.746094-89.324219 97.453126-106.101562 8.835937-14.828126 14.589843-31.089844 17.09375-48.582032.007812 0 .007812-.011718 0-.019531.007812-.011719.007812-.011719 0-.019531 5.664062-40.105469-7.441407-81.90625-37.183594-111.699219zm-325.476563 299.921875c-.242187.183594-40.632812 30.152344-40.867187 30.355469-3.414063 2.699219-7.519532 4.121093-11.851563 4.121093-17.941406 0-26.238281-22.847656-11.90625-34.199218l38.175781-27.792969zm147.714844-187.101562c.070313-.113282 20.976563-32.417969 21.046875-32.53125 12.160156-18.789063 15.472656-28.324219 32.207031-38.773438 21.476563-13.160156 47.367188-11.824219 67.589844 3.492188 24.53125 18.75 30.210937 51.589843 16.886719 76.179687-.007813.011719-.007813.03125-.019532.042969-6.988281 12.6875-5.429687 7.890625-93.96875 100.949218l-28.628906-22.355468c7.925782-7.746094 11.074219-17.941406 11.074219-19.25 2.941406-9.738282 1.664063-19.824219-3.789063-29.5-.289062-.539063-22.089843-37.722656-22.398437-38.253906zm-115.753906 117.042968 31.011719-21.804687c4.179687 3.351562 29.078124 23.050781 30.109374 23.855469-9.765624 7.011718-21.332031 15.316406-35.035156 25.167968-24.574218-25.542968-19.933594-20.703125-26.085937-27.21875zm88.921875 65.726563c-7.109375 7.367187-18.796875 7.285156-25.808594 0l-26.296875-27.339844c14.621094-10.515625 26.757813-19.230469 36.84375-26.472656 3.226563 2.523437 33.09375 25.898437 38.179687 29.976562zm151.402344 9.136719c17.042968 13.527343 2.136718 40.816406-18.675782 33.011718-5.015625-1.851562-.714844-.152344-134.972656-105.3125-22.4375-17.632812-55.417969-43.148437-58.914062-48.441406-4.667969-7.476562-5.199219-16.664062-1.429688-24.632812l18.09375-30.886719c8.839844 14.3125 17.054688 27.605469 22.058594 35.71875 8.441406 13.621093-15.222656-7 173.839844 140.542969zm0 0"/></svg>