<svg viewBox="0 -143 512 512" xmlns="http://www.w3.org/2000/svg"><path d="m7.5 119.210938c0-47.753907 48.648438-92.875 109.050781-97.082032 94.359375-4.28125 184.539063-4.28125 278.898438 0 60.402343 4.207032 109.050781 49.328125 109.050781 97.078125 0 47.753907-48.648438 92.875-109.050781 97.082031-94.359375 4.28125-184.539063 4.28125-278.898438 0-60.402343-4.207031-109.050781-49.328124-109.050781-97.078124zm0 0" fill="#f0b173"/><path d="m395.449219 22.128906c-.890625-.042968-1.773438-.074218-2.664063-.117187 47.09375 14.285156 81.714844 54.75 81.714844 97.195312 0 42.445313-34.621094 82.914063-81.714844 97.195313.890625-.039063 1.773438-.070313 2.664063-.113282 60.402343-4.207031 109.050781-49.328124 109.050781-97.082031 0-47.75-48.648438-92.871093-109.050781-97.078125zm0 0" fill="#db9b5c"/><path d="m41.78125 69.679688c0-29.605469 42.089844-57.578126 94.351562-60.191407 81.640626-2.652343 159.664063-2.652343 241.300782 0 52.261718 2.613281 94.347656 30.585938 94.347656 60.191407 0 29.609374-42.089844 57.582031-94.347656 60.191406-81.636719 2.652344-159.660156 2.652344-241.300782 0-52.261718-2.609375-94.351562-30.582032-94.351562-60.191406zm0 0" fill="#84665c"/><path d="m377.433594 9.488281c-3.289063-.105469-6.570313-.199219-9.847656-.300781 42.515624 8.082031 74.199218 33.644531 74.199218 60.492188 0 26.851562-31.683594 52.410156-74.199218 60.492187 3.277343-.097656 6.558593-.195313 9.851562-.300781 52.257812-2.609375 94.347656-30.582032 94.347656-60.191406-.003906-29.605469-42.09375-57.578126-94.351562-60.191407zm0 0" fill="#84665c"/><path d="m159.972656 210.460938c-14.175781-.453126-28.640625-1.011719-42.992187-1.660157-55.289063-3.898437-101.980469-44.90625-101.980469-89.589843 0-16.964844 6.941406-34.078126 19.296875-48.839844.601563 34.238281 45.878906 64.214844 101.460937 66.988281.042969.003906.085938.003906.128907.007813 40.992187 1.332031 162.878906 1.8125 184 1.445312 4.140625-.074219 7.4375-3.488281 7.367187-7.628906-.070312-4.140625-3.503906-7.476563-7.628906-7.371094-60.96875 1.0625-120.894531.589844-183.183594-1.433594-23.746094-1.195312-46.121094-7.863281-63.011718-18.777344-15.347657-9.917968-24.148438-22.28125-24.148438-33.921874 0-11.640626 8.804688-24.003907 24.148438-33.917969 16.890624-10.914063 39.265624-17.582031 63.011718-18.777344 7.585938-.246094 15.242188-.472656 22.757813-.671875 4.140625-.109375 7.40625-3.558594 7.296875-7.699219s-3.582032-7.382812-7.695313-7.296875c-7.566406.203125-15.273437.429688-22.914062.679688-.042969 0-.085938.003906-.128907.003906-38.21875 1.910156-71.566406 16.679688-88.867187 36.851562-29.378906 20.449219-46.890625 50.410157-46.890625 80.359376 0 25.078124 12.519531 50.75 34.351562 70.433593 22.039063 19.871094 51.042969 31.992188 81.675782 34.125.0625.003907.121094.007813.183594.011719 14.445312.65625 29.011718 1.21875 43.285156 1.671875.082031.003906.164062.003906.242187.003906 4.035157 0 7.363281-3.203125 7.492188-7.261719.132812-4.140624-3.117188-7.601562-7.257813-7.734374zm0 0"/><path d="m468.886719 41.574219c-16.558594-21.558594-51.160157-37.582031-91.078125-39.574219-.042969-.003906-.085938-.003906-.128906-.003906-63.078126-2.0507815-123.746094-2.515625-185.476563-1.421875-4.140625.074219-7.4375 3.492187-7.363281 7.632812.074218 4.140625 3.503906 7.433594 7.632812 7.367188 61.453125-1.089844 121.851563-.628907 184.652344 1.410156 23.746094 1.195313 46.121094 7.863281 63.011719 18.777344 15.34375 9.914062 24.144531 22.277343 24.144531 33.917969 0 11.640624-8.800781 24.003906-24.144531 33.921874-16.890625 10.910157-39.265625 17.578126-63.011719 18.773438-8.492188.277344-17.007812.523438-25.308594.742188-4.140625.105468-7.410156 3.550781-7.304687 7.691406.105469 4.074218 3.441406 7.304687 7.492187 7.304687.066406 0 .132813 0 .199219-.003906 8.355469-.214844 16.925781-.464844 25.472656-.742187.046875-.003907.089844-.003907.132813-.007813 54.554687-2.722656 99.1875-31.65625 101.382812-65.105469 11.402344 14.378906 17.808594 30.84375 17.808594 46.957032 0 20.835937-10.71875 42.449218-29.402344 59.296874-19.53125 17.609376-45.304687 28.367188-72.578125 30.292969-68.941406 3.125-135.183593 3.949219-202.507812 2.523438-.054688-.003907-.109375-.003907-.164063-.003907-4.066406 0-7.40625 3.253907-7.492187 7.34375-.089844 4.140626 3.195312 7.566407 7.335937 7.65625 21.371094.453126 42.621094.679688 63.890625.679688 46.109375 0 92.277344-1.066406 139.707031-3.21875.0625-.003906.125-.007812.183594-.011719 30.636719-2.140625 59.640625-14.257812 81.671875-34.121093 21.832031-19.6875 34.355469-45.359376 34.355469-70.4375 0-28.410157-16.097656-57.347657-43.113281-77.636719zm0 0"/><path d="m151.5 45.285156v49.402344c0 4.140625 3.355469 7.5 7.5 7.5s7.5-3.359375 7.5-7.5v-49.402344c0-1.773437 1.910156-3.273437 4.171875-3.273437s4.175781 1.5 4.175781 3.273437v38.628906c0 10.074219 8.597656 18.273438 19.171875 18.273438h.65625c10.570313 0 19.171875-8.199219 19.171875-18.273438v-38.628906c0-1.773437 1.910156-3.273437 4.171875-3.273437h1.351563c2.261718 0 4.171875 1.5 4.171875 3.273437v38.628906c0 10.074219 8.601562 18.273438 19.175781 18.273438h1.351562c10.570313 0 19.171876-8.199219 19.171876-18.273438v-38.628906c0-1.773437 1.910156-3.273437 4.171874-3.273437h.988282c2.261718 0 4.171875 1.5 4.171875 3.273437v38.628906c0 10.074219 8.601562 18.273438 19.175781 18.273438h.414062c10.574219 0 19.175782-8.199219 19.175782-18.273438v-38.628906c0-1.773437 1.910156-3.273437 4.171875-3.273437h1.980469c2.261718 0 4.171874 1.5 4.171874 3.273437v38.628906c0 10.074219 8.601563 18.273438 19.171876 18.273438h.492187c10.574219 0 19.175781-8.199219 19.175781-18.273438v-49.402343c0-4.140625-3.359375-7.5-7.5-7.5-4.144531 0-7.5 3.359375-7.5 7.5v49.402343c0 1.773438-1.914062 3.273438-4.175781 3.273438h-.492187c-2.261719 0-4.171876-1.5-4.171876-3.273438v-38.628906c0-10.074218-8.601562-18.273437-19.171874-18.273437h-1.980469c-10.574219 0-19.171875 8.199219-19.171875 18.273437v38.628906c0 1.773438-1.910156 3.273438-4.175782 3.273438h-.414062c-2.261719 0-4.175781-1.5-4.175781-3.273438v-38.628906c0-10.074218-8.597657-18.273437-19.171875-18.273437h-.988282c-10.570312 0-19.171874 8.199219-19.171874 18.273437v38.628906c0 1.773438-1.910157 3.273438-4.171876 3.273438h-1.351562c-2.265625 0-4.175781-1.5-4.175781-3.273438v-38.628906c0-10.074218-8.601563-18.273437-19.171875-18.273437h-1.351563c-10.570312 0-19.171875 8.199219-19.171875 18.273437v38.628906c0 1.773438-1.910156 3.273438-4.171875 3.273438h-.65625c-2.261719 0-4.171875-1.5-4.171875-3.273438v-38.628906c0-10.074218-8.601562-18.273437-19.175781-18.273437-10.570313 0-19.171875 8.199219-19.171875 18.273437zm0 0"/></svg>