<?xml version="1.0"?>
<svg xmlns="http://www.w3.org/2000/svg" xmlns:xlink="http://www.w3.org/1999/xlink" xmlns:svgjs="http://svgjs.com/svgjs" version="1.1" width="512" height="512" x="0" y="0" viewBox="0 0 512 512" style="enable-background:new 0 0 512 512" xml:space="preserve" class=""><g transform="matrix(1,0,0,1,0,149.99999999999997)"><path xmlns="http://www.w3.org/2000/svg" d="m7.5 119.210938c0-47.753907 48.648438-92.875 109.050781-97.082032 94.359375-4.28125 184.539063-4.28125 278.898438 0 60.402343 4.207032 109.050781 49.328125 109.050781 97.078125 0 47.753907-48.648438 92.875-109.050781 97.082031-94.359375 4.28125-184.539063 4.28125-278.898438 0-60.402343-4.207031-109.050781-49.328124-109.050781-97.078124zm0 0" fill="#fb910e" data-original="#ffc943" style="" class=""/><path xmlns="http://www.w3.org/2000/svg" d="m395.449219 22.128906c-.890625-.042968-1.773438-.074218-2.664063-.117187 47.09375 14.285156 81.714844 54.75 81.714844 97.195312 0 42.445313-34.621094 82.914063-81.714844 97.195313.890625-.039063 1.773438-.070313 2.664063-.113282 60.402343-4.207031 109.050781-49.328124 109.050781-97.082031 0-47.75-48.648438-92.871093-109.050781-97.078125zm0 0" fill="#fda100" data-original="#ffaa16" style="" class=""/><path xmlns="http://www.w3.org/2000/svg" d="m41.78125 69.679688c0-29.605469 42.089844-57.578126 94.351562-60.191407 81.640626-2.652343 159.664063-2.652343 241.300782 0 52.261718 2.613281 94.347656 30.585938 94.347656 60.191407 0 29.609374-42.089844 57.582031-94.347656 60.191406-81.636719 2.652344-159.660156 2.652344-241.300782 0-52.261718-2.609375-94.351562-30.582032-94.351562-60.191406zm0 0" fill="#901b02" data-original="#76ffda" style="" class=""/><path xmlns="http://www.w3.org/2000/svg" d="m377.433594 9.488281c-3.289063-.105469-6.570313-.199219-9.847656-.300781 42.515624 8.082031 74.199218 33.644531 74.199218 60.492188 0 26.851562-31.683594 52.410156-74.199218 60.492187 3.277343-.097656 6.558593-.195313 9.851562-.300781 52.257812-2.609375 94.347656-30.582032 94.347656-60.191406-.003906-29.605469-42.09375-57.578126-94.351562-60.191407zm0 0" fill="#a00404" data-original="#5de1c0" style="" class=""/><path xmlns="http://www.w3.org/2000/svg" d="m159.972656 210.460938c-14.175781-.449219-28.640625-1.007813-42.992187-1.660157-55.289063-3.894531-101.980469-44.90625-101.980469-89.589843 0-16.964844 6.933594-34.082032 19.289062-48.847657.597657 34.242188 45.886719 64.222657 101.46875 67 .042969 0 .085938.003907.128907.003907 40.992187 1.335937 80.953125 1.996093 120.867187 1.996093 21.007813 0 42.011719-.183593 63.132813-.550781 4.140625-.070312 7.4375-3.484375 7.367187-7.628906-.070312-4.140625-3.503906-7.476563-7.628906-7.367188-60.96875 1.058594-120.890625.585938-183.183594-1.4375-51.367187-2.585937-87.160156-29.839844-87.160156-52.699218 0-22.855469 35.792969-50.109376 87.160156-52.695313 7.585938-.246094 15.242188-.472656 22.757813-.671875 4.140625-.109375 7.40625-3.558594 7.296875-7.699219-.109375-4.136719-3.582032-7.382812-7.695313-7.296875-7.566406.203125-15.273437.429688-22.914062.679688-.042969 0-.085938.003906-.128907.003906-38.207031 1.910156-71.550781 16.671875-88.859374 36.835938-29.386719 20.449218-46.898438 50.421874-46.898438 80.375 0 25.078124 12.519531 50.75 34.351562 70.4375 22.039063 19.871093 51.042969 31.988281 81.675782 34.125.0625.003906.121094.007812.183594.011718 14.445312.652344 29.011718 1.214844 43.285156 1.671875.082031 0 .164062.003907.242187.003907 4.035157 0 7.363281-3.203126 7.492188-7.265626.132812-4.136718-3.117188-7.601562-7.257813-7.734374zm0 0" fill="#000000" data-original="#434c54" style="" class=""/><path xmlns="http://www.w3.org/2000/svg" d="m468.882812 41.5625c-16.5625-21.550781-51.164062-37.570312-91.074218-39.5625-.042969-.003906-.085938-.003906-.128906-.003906-63.078126-2.0507815-123.746094-2.515625-185.476563-1.421875-4.140625.074219-7.4375 3.492187-7.363281 7.632812.074218 4.140625 3.503906 7.433594 7.632812 7.367188 61.453125-1.089844 121.851563-.628907 184.652344 1.410156 51.367188 2.585937 87.15625 29.839844 87.15625 52.695313 0 22.855468-35.792969 50.109374-87.15625 52.695312-8.492188.277344-17.007812.523438-25.308594.742188-4.140625.105468-7.410156 3.550781-7.304687 7.691406.105469 4.074218 3.441406 7.304687 7.492187 7.304687.066406 0 .132813 0 .199219-.003906 8.355469-.214844 16.925781-.464844 25.472656-.742187.046875-.003907.089844-.003907.132813-.007813 54.558594-2.722656 99.199218-31.660156 101.390625-65.109375 11.402343 14.382812 17.800781 30.847656 17.800781 46.960938 0 20.835937-10.71875 42.453124-29.402344 59.300781-19.53125 17.609375-45.304687 28.363281-72.578125 30.289062-68.941406 3.128907-135.183593 3.953125-202.507812 2.523438-.054688 0-.109375 0-.164063 0-4.066406 0-7.40625 3.253906-7.492187 7.339843-.089844 4.140626 3.195312 7.570313 7.335937 7.65625 21.371094.453126 42.621094.683594 63.890625.683594 46.109375-.003906 92.277344-1.070312 139.707031-3.222656.0625-.003906.125-.003906.183594-.011719 30.636719-2.140625 59.640625-14.257812 81.671875-34.121093 21.832031-19.683594 34.355469-45.359376 34.355469-70.4375 0-28.414063-16.097656-57.359376-43.117188-77.648438zm0 0" fill="#000000" data-original="#434c54" style="" class=""/><path xmlns="http://www.w3.org/2000/svg" d="m341.328125 102.1875h-.492187c-10.574219 0-19.175782-8.199219-19.175782-18.273438v-38.628906c0-1.773437-1.910156-3.273437-4.171875-3.273437h-1.980469c-2.261718 0-4.171874 1.5-4.171874 3.273437v38.628906c0 10.074219-8.601563 18.273438-19.171876 18.273438h-.417968c-10.570313 0-19.171875-8.199219-19.171875-18.273438v-38.628906c0-1.773437-1.910157-3.273437-4.171875-3.273437h-.988282c-2.261718 0-4.175781 1.5-4.175781 3.273437v38.628906c0 10.074219-8.597656 18.273438-19.171875 18.273438h-1.351562c-10.570313 0-19.171875-8.199219-19.171875-18.273438v-38.628906c0-1.773437-1.910157-3.273437-4.171875-3.273437h-1.351563c-2.261719 0-4.171875 1.5-4.171875 3.273437v38.628906c0 10.074219-8.601562 18.273438-19.175781 18.273438h-.65625c-10.570313 0-19.171875-8.199219-19.171875-18.273438v-38.628906c0-1.773437-1.910156-3.273437-4.171875-3.273437s-4.175781 1.5-4.175781 3.273437v49.402344c0 4.140625-3.355469 7.5-7.5 7.5-4.140625 0-7.5-3.359375-7.5-7.5v-49.402344c0-10.074218 8.601562-18.273437 19.175781-18.273437 10.570313 0 19.171875 8.199219 19.171875 18.273437v38.628906c0 1.773438 1.910156 3.273438 4.171875 3.273438h.65625c2.261719 0 4.175781-1.5 4.175781-3.273438v-38.628906c0-10.074218 8.597656-18.273437 19.171875-18.273437h1.351563c10.570312 0 19.171875 8.199219 19.171875 18.273437v38.628906c0 1.773438 1.910156 3.273438 4.171875 3.273438h1.351562c2.261719 0 4.171875-1.5 4.171875-3.273438v-38.628906c0-10.074218 8.601563-18.273437 19.175781-18.273437h.988282c10.570312 0 19.171875 8.199219 19.171875 18.273437v38.628906c0 1.773438 1.910156 3.273438 4.171875 3.273438h.417968c2.261719 0 4.171876-1.5 4.171876-3.273438v-38.628906c0-10.074218 8.601562-18.273437 19.171874-18.273437h1.980469c10.574219 0 19.171875 8.199219 19.171875 18.273437v38.628906c0 1.773438 1.914063 3.273438 4.175782 3.273438h.492187c2.261719 0 4.171875-1.5 4.171875-3.273438v-49.402343c0-4.140625 3.355469-7.5 7.5-7.5s7.5 3.359375 7.5 7.5v49.402343c0 10.074219-8.601562 18.273438-19.171875 18.273438zm0 0" fill="#1c0000" data-original="#00c395" style="" class=""/></g></svg>
