<svg height="512" viewBox="0 0 512 512" width="512" xmlns="http://www.w3.org/2000/svg"><g id="filled_outline" data-name="filled outline"><path d="m25 256c0-17.137 15.75-32.273 19.4-48.307 3.763-16.556-3.77-37.007 3.436-51.944 7.325-15.183 28.087-22 38.5-35.046 10.464-13.103 12.527-34.848 25.632-45.312 13.042-10.414 34.681-7.626 49.865-14.951 14.936-7.206 26.2-25.934 42.757-29.7 16.034-3.64 34.273 8.26 51.41 8.26s35.376-11.9 51.41-8.257c16.556 3.763 27.821 22.491 42.758 29.7 15.183 7.325 36.823 4.538 49.865 14.951 13.1 10.465 15.171 32.207 25.636 45.313 10.414 13.041 31.176 19.862 38.5 35.045 7.206 14.937-.328 35.389 3.435 51.944 3.646 16.031 19.396 31.167 19.396 48.304s-15.75 32.273-19.395 48.307c-3.763 16.556 3.77 37.007-3.436 51.944-7.325 15.183-28.087 22-38.5 35.046-10.464 13.1-12.531 34.848-25.636 45.312-13.042 10.414-34.681 7.626-49.865 14.951-14.936 7.206-26.2 25.934-42.757 29.7-16.035 3.64-34.274-8.26-51.411-8.26s-35.376 11.9-51.41 8.257c-16.556-3.763-27.821-22.491-42.758-29.7-15.183-7.325-36.823-4.538-49.865-14.951-13.105-10.462-15.167-32.206-25.636-45.306-10.414-13.041-31.176-19.862-38.5-35.045-7.206-14.937.328-35.389-3.435-51.944-3.646-16.038-19.396-31.174-19.396-48.311z" fill="#bd9070"/><path d="m437 256a182.657 182.657 0 0 1 -1.58 24 180.456 180.456 0 0 1 -43.92 96 182.834 182.834 0 0 1 -15.5 15.5 180.955 180.955 0 0 1 -48 30.6q-2.265.99-4.56 1.9a179.292 179.292 0 0 1 -43.44 11.42 183.068 183.068 0 0 1 -48 0 179.292 179.292 0 0 1 -43.44-11.42q-2.3-.915-4.56-1.9a180.955 180.955 0 0 1 -48-30.6 182.834 182.834 0 0 1 -15.5-15.5 180.839 180.839 0 0 1 0-240 182.834 182.834 0 0 1 15.5-15.5 180.955 180.955 0 0 1 48-30.6q2.265-.99 4.56-1.9a179.292 179.292 0 0 1 43.44-11.42 183.068 183.068 0 0 1 48 0 179.292 179.292 0 0 1 43.44 11.42q2.3.915 4.56 1.9a180.955 180.955 0 0 1 48 30.6 182.834 182.834 0 0 1 15.5 15.5 180.556 180.556 0 0 1 45.5 120z" fill="#a83b32"/><path d="m437 256a182.657 182.657 0 0 1 -1.58 24h-358.84a183.068 183.068 0 0 1 0-48h358.84a182.657 182.657 0 0 1 1.58 24z" fill="#cd9c7a"/><path d="m422.1 328a180.955 180.955 0 0 1 -30.6 48h-271a180.955 180.955 0 0 1 -30.6-48z" fill="#cd9c7a"/><path d="m422.1 184h-332.2a180.955 180.955 0 0 1 30.6-48h271a180.955 180.955 0 0 1 30.6 48z" fill="#cd9c7a"/><g fill="#e6af89"><path d="m280 76.58v59.42h-48v-59.42a183.068 183.068 0 0 1 48 0z"/><path d="m280 376v59.42a183.068 183.068 0 0 1 -48 0v-59.42z"/><path d="m232 184h48v144h-48z"/><path d="m184 89.9v142.1h-48v-111.5a180.955 180.955 0 0 1 48-30.6z"/><path d="m184 280v142.1a180.955 180.955 0 0 1 -48-30.6v-111.5z"/><path d="m376 120.5v111.5h-48v-142.1a180.955 180.955 0 0 1 48 30.6z"/><path d="m376 280v111.5a180.955 180.955 0 0 1 -48 30.6v-142.1z"/></g><path d="m256 224a8 8 0 0 1 -8-8 68.8 68.8 0 0 0 -20.284-48.97l-1.373-1.373a8 8 0 0 1 11.314-11.314l1.373 1.373a84.7 84.7 0 0 1 24.97 60.284 8 8 0 0 1 -8 8z" fill="#5e8569"/><path d="m304 320a8 8 0 0 1 -8-8 84.7 84.7 0 0 1 24.97-60.284l1.373-1.373a8 8 0 0 1 11.314 11.314l-1.373 1.373a68.8 68.8 0 0 0 -20.284 48.97 8 8 0 0 1 -8 8z" fill="#5e8569"/><circle cx="256" cy="248" fill="#d970a2" r="32"/><circle cx="304" cy="344" fill="#f55648" r="32"/><path d="m37.053 326.816c-.7 11.1-1.416 22.576 3.573 32.913 5.079 10.519 14.592 17.145 23.79 23.553 6.117 4.262 11.9 8.287 15.665 13.012 3.8 4.76 6.463 11.316 9.278 18.257 4.2 10.356 8.546 21.065 17.62 28.31 9.025 7.2 20.408 9.07 31.417 10.873 7.417 1.215 14.424 2.364 19.958 5.032 5.364 2.588 10.531 7.287 16 12.26 8.335 7.578 16.955 15.415 28.463 18.036a37.313 37.313 0 0 0 8.28.9c8.236 0 16.381-2.406 24.322-4.752 7.324-2.167 14.24-4.21 20.581-4.21s13.257 2.043 20.58 4.206c10.6 3.131 21.55 6.368 32.606 3.855 11.5-2.62 20.124-10.457 28.459-18.035 5.47-4.973 10.637-9.672 16-12.259 5.535-2.669 12.542-3.818 19.959-5.033 11.009-1.8 22.392-3.668 31.418-10.873 9.073-7.245 13.417-17.954 17.619-28.31 2.815-6.941 5.475-13.5 9.281-18.26 3.764-4.714 9.539-8.738 15.652-13 9.2-6.412 18.719-13.042 23.8-23.565 4.988-10.336 4.269-21.813 3.572-32.912-.472-7.542-.919-14.665.464-20.735 1.3-5.723 4.7-11.763 8.308-18.158 5.289-9.38 11.282-20.014 11.282-31.921s-5.993-22.541-11.281-31.923c-3.605-6.4-7.009-12.435-8.31-18.164-1.381-6.064-.934-13.187-.462-20.729.7-11.1 1.416-22.576-3.573-32.913-5.079-10.519-14.592-17.145-23.79-23.553-6.117-4.262-11.9-8.287-15.665-13.012-3.8-4.76-6.463-11.316-9.278-18.257-4.2-10.356-8.546-21.065-17.62-28.31-9.025-7.2-20.408-9.07-31.417-10.873-7.417-1.215-14.424-2.364-19.958-5.032-5.364-2.588-10.531-7.287-16-12.26-8.336-7.574-16.956-15.415-28.464-18.036-11.052-2.5-22.009.727-32.6 3.856-7.325 2.163-14.241 4.206-20.582 4.206s-13.257-2.043-20.58-4.206c-10.594-3.13-21.548-6.364-32.606-3.855-11.5 2.62-20.124 10.457-28.459 18.035-5.47 4.973-10.637 9.672-16 12.259-5.535 2.669-12.542 3.818-19.959 5.033-11.009 1.8-22.392 3.668-31.418 10.873-9.073 7.245-13.417 17.954-17.619 28.31-2.815 6.941-5.475 13.5-9.281 18.26-3.764 4.714-9.539 8.738-15.652 13-9.2 6.412-18.719 13.042-23.8 23.565-4.988 10.336-4.269 21.813-3.572 32.912.472 7.542.919 14.665-.464 20.735-1.3 5.723-4.7 11.763-8.308 18.158-5.289 9.38-11.282 20.014-11.282 31.921s5.993 22.541 11.281 31.923c3.605 6.395 7.009 12.435 8.31 18.164 1.381 6.064.934 13.187.462 20.729zm5.167-94.883c4.009-7.115 8.156-14.471 9.97-22.467 1.9-8.315 1.354-16.941.831-25.283-.593-9.459-1.153-18.394 2.013-24.954 3.259-6.748 10.681-11.919 18.538-17.394 6.782-4.727 13.8-9.613 19.007-16.141 5.257-6.577 8.485-14.535 11.608-22.23 3.584-8.839 6.971-17.189 12.774-21.821 5.757-4.6 14.628-6.049 24.021-7.588 8.213-1.345 16.706-2.737 24.325-6.41 7.456-3.6 13.737-9.31 19.812-14.833 7.118-6.472 13.842-12.585 21.242-14.27a21.235 21.235 0 0 1 4.722-.493c5.96 0 12.729 2 19.8 4.089 8.096 2.39 16.463 4.862 25.117 4.862s17.021-2.472 25.113-4.862c9.021-2.664 17.539-5.182 24.522-3.6 7.4 1.686 14.128 7.8 21.246 14.271 6.075 5.523 12.356 11.235 19.814 14.834 7.617 3.672 16.11 5.064 24.323 6.409 9.393 1.539 18.264 2.992 24.02 7.588 5.8 4.632 9.191 12.982 12.775 21.821 3.123 7.7 6.351 15.653 11.6 22.225 5.217 6.54 12.235 11.429 19.022 16.157 7.853 5.471 15.271 10.638 18.527 17.382 3.167 6.561 2.607 15.5 2.014 24.955-.523 8.342-1.064 16.968.829 25.277 1.816 8 5.963 15.358 9.972 22.473 4.744 8.416 9.223 16.362 9.223 24.07s-4.479 15.654-9.22 24.067c-4.009 7.115-8.156 14.471-9.97 22.467-1.895 8.315-1.354 16.941-.831 25.283.593 9.459 1.153 18.394-2.013 24.954-3.259 6.748-10.681 11.919-18.538 17.394-6.782 4.727-13.8 9.613-19.007 16.141-5.257 6.577-8.485 14.535-11.608 22.23-3.584 8.839-6.971 17.189-12.774 21.821-5.757 4.6-14.628 6.049-24.021 7.588-8.213 1.345-16.706 2.737-24.325 6.41-7.456 3.6-13.737 9.31-19.812 14.833-7.118 6.472-13.842 12.585-21.242 14.27-6.988 1.59-15.5-.931-24.526-3.6-8.092-2.386-16.459-4.858-25.113-4.858s-17.021 2.472-25.113 4.862c-9.02 2.664-17.539 5.184-24.522 3.6-7.4-1.686-14.128-7.8-21.246-14.271-6.075-5.523-12.356-11.235-19.814-14.834-7.617-3.672-16.11-5.064-24.323-6.409-9.393-1.539-18.264-2.992-24.02-7.588-5.8-4.632-9.191-12.982-12.775-21.821-3.123-7.695-6.351-15.653-11.6-22.225-5.217-6.54-12.235-11.429-19.022-16.157-7.853-5.471-15.271-10.638-18.527-17.382-3.167-6.561-2.607-15.5-2.014-24.955.523-8.342 1.064-16.968-.829-25.277-1.816-8-5.963-15.358-9.972-22.473-4.744-8.416-9.223-16.362-9.223-24.07s4.479-15.654 9.22-24.067z"/><path d="m256 445c104.215 0 189-84.785 189-189s-84.785-189-189-189-189 84.785-189 189 84.785 189 189 189zm-173-189c0-5.4.261-10.729.747-16h133.058a39.971 39.971 0 0 0 7.195 31.972v.028h-140.253c-.486-5.271-.747-10.6-.747-16zm346 0c0 5.395-.261 10.729-.747 16h-103.529a70.045 70.045 0 0 1 7.56-8.97l1.373-1.373a8 8 0 0 0 -11.314-11.314l-1.373 1.373a85.539 85.539 0 0 0 -15.046 20.284h-17.924v-.028a39.971 39.971 0 0 0 7.2-31.972h133.053c.486 5.271.747 10.605.747 16zm-285 32h32v121.354a173.662 173.662 0 0 1 -32-21.616zm80 0v32h-32v-32zm-32-96h32v32h-32zm51.734 0a68.843 68.843 0 0 1 3.9 16.886 39.686 39.686 0 0 0 -7.634 2.464v-19.35zm76.266 0v32h-32v-32zm-40 152a24 24 0 1 1 24 24 24.028 24.028 0 0 1 -24-24zm40-56v19.35a39.686 39.686 0 0 0 -7.636-2.464 68.843 68.843 0 0 1 3.9-16.886zm-23.677 16.747a39.643 39.643 0 0 0 -8.323 2.6v-19.347h11.424a85.118 85.118 0 0 0 -3.101 16.747zm-64.323-56.747a24 24 0 1 1 24 24 24.028 24.028 0 0 1 -24-24zm40-36.65a39.643 39.643 0 0 0 -8.323-2.6 85.118 85.118 0 0 0 -3.1-16.747h11.423zm0 76.65v32h-32v-32zm-80 96h32v42.021a171.5 171.5 0 0 1 -32-9.3zm0-16v-32h72.805a39.968 39.968 0 0 0 7.217 32zm128 16v32.724a171.5 171.5 0 0 1 -32 9.3v-42.024zm16-16.028a39.916 39.916 0 0 0 0-47.944v-32.028h32v99.738a173.662 173.662 0 0 1 -32 21.616zm48 .028v-32h25.354a173.662 173.662 0 0 1 -21.616 32zm0-48v-32h42.021a171.5 171.5 0 0 1 -9.3 32zm0-96v-32h32.724a171.5 171.5 0 0 1 9.3 32zm0-48v-32h3.738a173.662 173.662 0 0 1 21.616 32zm-16 48h-32v-121.354a173.662 173.662 0 0 1 32 21.616zm-48-96h-32v-42.021a171.5 171.5 0 0 1 32 9.3zm0 16v32h-65.924a85.539 85.539 0 0 0 -15.046-20.284l-1.373-1.373a8 8 0 0 0 -11.314 11.314l1.373 1.373a70.045 70.045 0 0 1 7.56 8.97h-43.276v-32zm-128-16v-32.724a171.5 171.5 0 0 1 32-9.3v42.024zm-16 96h-32v-99.738a173.662 173.662 0 0 1 32-21.616zm-48-80v32h-25.354a173.662 173.662 0 0 1 21.616-32zm0 48v32h-42.021a171.5 171.5 0 0 1 9.3-32zm0 96v32h-32.724a171.5 171.5 0 0 1 -9.3-32zm0 48v32h-3.738a173.662 173.662 0 0 1 -21.616-32zm112 92.253v-44.253h32v44.253c-5.271.486-10.605.747-16 .747s-10.729-.261-16-.747zm32-344.506v44.253h-32v-44.253c5.271-.486 10.6-.747 16-.747s10.729.261 16 .747z"/></g></svg>