<?xml version="1.0" encoding="iso-8859-1"?>
<!-- Generator: Adobe Illustrator 19.0.0, SVG Export Plug-In . SVG Version: 6.00 Build 0)  -->
<svg version="1.1" id="Capa_1" xmlns="http://www.w3.org/2000/svg" xmlns:xlink="http://www.w3.org/1999/xlink" x="0px" y="0px"
	 viewBox="0 0 511.999 511.999" style="enable-background:new 0 0 511.999 511.999;" xml:space="preserve">
<path style="fill:#965B33;" d="M7.532,457.557c-0.696,12.68,9.432,23.341,22.131,23.341h226.36h226.312
	c12.717,0,22.88-10.687,22.126-23.382C484.335,118.513,26.869,105.313,7.532,457.557z"/>
<path style="fill:#7F4620;" d="M293.037,201.67C184.846,219.831,88.169,311.622,88.169,480.897H29.662
	c-12.681,0-22.825-10.63-22.131-23.293C18.19,263.019,162.538,179.931,293.037,201.67z"/>
<path style="fill:#F1F2F2;" d="M29.276,357.736c1.814-8.228,4.625-16.232,8.556-24.329c4.409-9.081,9.333-17.913,14.775-26.415
	c16.595-25.929,38.061-48.661,63.3-66.325c23.823-16.672,50.775-28.711,79.025-35.555c27.931-6.766,57.039-8.473,85.583-5.201
	c28.828,3.306,57.052,11.691,82.974,24.738c26.826,13.503,51.061,31.981,71.198,54.262c21.802,24.124,38.595,52.496,50.071,82.882
	c3.248,8.6,1.144,18.372-5.547,24.675c-6.533,6.154-15.764,9.656-26.031,9.366c-31.353-0.861-26.347-30.832-46.448-44.087
	c-6.957-4.595-15.947-6.406-21.213-12.863c-14.695-18.059,1.511-52.465-35.347-51.704c-35.908,0.751-21.072,59.203-21.072,80.765
	c0,10.431-4.234,19.851-11.062,26.688c-6.647,6.657-15.777,10.831-25.878,11.042c-32.434,0.691-47.981-37.459-38.701-63.757
	c6.206-17.558,22.804-61.575,2.783-76.4c-7.488-5.536-19.171-1.421-22.534,6.717c-2.192,5.296-2.072,11.222-1.712,16.947
	c1.531,23.865-1.872,47.73-32.144,47.73c-11.873,0-24.706-6.176-31.103-16.427c-5.136-8.218-3.914-18.84-9.52-26.768
	c-8.358-11.783-26.008-14.045-38.46-7.948c-14.195,6.948-17.648,22.684-19.3,37.14c-2.292,20.131,0.711,40.212,0.701,60.343
	c0,10.421-4.224,19.851-11.051,26.688c-7.068,7.058-16.918,11.342-27.759,11.042c-20.522-0.571-36.669-17.828-36.669-38.36
	C26.692,373.918,27.515,365.721,29.276,357.736z"/>
<path style="fill:#DDDDDD;" d="M321.432,208.127c-95.95-13.096-197.889,30.154-247.756,132.382
	c-7.5,15.375-11.351,32.288-11.357,49.394c0,0.089,0,0.177,0,0.266c0,11.552,5.116,22.073,13.244,29.161
	c-3.844,1.181-7.948,1.772-12.203,1.651c-20.522-0.571-36.669-17.828-36.669-38.36c0-0.089,0-0.178,0-0.266
	c0.007-16.918,3.726-33.667,11.111-48.887C93.801,218.064,216.026,177.539,321.432,208.127z"/>
<path style="fill:#00997C;" d="M395.122,94.788c-25.42-18.34-29.209-44.463-29.138-58.787c0.019-3.87-4.247-6.215-7.505-4.125
	c-12.055,7.737-36.14,18.538-65.247,6.906c-2.658-1.063-5.661,0.329-6.501,3.065c-3.139,10.222-12.688,32.986-38.453,49.017
	c-1.956,1.216-2.82,3.613-2.05,5.784c4.939,13.924,21.668,63.605,22.194,99.16c0.056,3.788,4.197,6.065,7.426,4.082
	c30.3-18.612,81.208-31.114,95.611-34.407c2.245-0.514,3.805-2.527,3.785-4.831c-0.274-30.344,13.826-50.607,20.775-58.735
	C397.877,99.743,397.443,96.463,395.122,94.788z"/>
<path style="fill:#02876E;" d="M314.57,66.8c-3.136,10.219-12.687,32.982-38.451,49.017c-1.959,1.215-2.821,3.613-2.054,5.782
	c3.65,10.287,13.723,40.053,18.959,69.242c-6.138,2.825-11.962,5.846-17.171,9.048c-3.229,1.987-7.375-0.292-7.428-4.083
	c-0.527-35.549-17.257-85.236-22.193-99.157c-0.776-2.174,0.095-4.567,2.046-5.787c25.765-16.034,35.316-38.798,38.451-49.017
	c0.844-2.73,3.849-4.128,6.501-3.06c29.113,11.628,53.194,0.824,65.246-6.909c3.264-2.09,7.529,0.254,7.505,4.125
	c-0.034,7.271,0.931,17.584,5.211,28.385c-12.933,4.8-30.368,7.238-50.123-0.661C318.411,62.667,315.411,64.056,314.57,66.8z"/>
<path d="M390.73,100.865c0.001,0.001,0.002,0.001,0.004,0.002C390.733,100.867,390.731,100.866,390.73,100.865z"/>
<circle style="fill:#D84F48;" cx="209.438" cy="195.233" r="41.666"/>
<path style="fill:#BF3936;" d="M249.611,206.313c-3.728,13.467-14.14,24.745-28.542,28.93c-22.101,6.422-45.22-6.285-51.641-28.381
	c-4.471-15.384,0.33-31.268,11.127-41.662c-1.997,7.192-2.075,15.013,0.16,22.706c6.421,22.095,29.541,34.804,51.641,28.381
	C239.06,214.34,244.905,210.849,249.611,206.313z"/>
<circle style="fill:#D84F48;" cx="289.282" cy="172.033" r="41.666"/>
<path style="fill:#BF3936;" d="M329.458,183.109c-3.728,13.467-14.14,24.745-28.542,28.93c-22.101,6.422-45.22-6.285-51.641-28.381
	c-4.471-15.384,0.33-31.268,11.127-41.662c-1.997,7.192-2.075,15.013,0.16,22.706c6.421,22.095,29.541,34.804,51.641,28.381
	C318.907,191.136,324.752,187.645,329.458,183.109z"/>
<path d="M511.946,457.072c-1.829-30.806-7.383-60.023-16.414-87.047c-0.127-0.793-0.387-1.551-0.75-2.254
	c-10.716-31.252-26.132-59.514-45.897-83.817c-31.588-38.841-73.211-66.914-120.89-81.676c4.546-5.834,7.767-12.641,9.343-19.91
	c15.661-4.797,29.27-8.085,35.79-9.576c5.711-1.306,9.664-6.325,9.61-12.206c-0.254-28.223,13.186-47.023,18.978-53.796
	c2.231-2.611,3.277-6.065,2.869-9.477c-0.412-3.436-2.262-6.572-5.077-8.603l-0.001-0.001
	c-22.793-16.445-26.091-40.057-26.029-52.67c0.022-4.541-2.434-8.719-6.409-10.904c-3.975-2.185-8.82-2.021-12.64,0.434
	c-10.614,6.812-32.317,16.684-58.417,6.253c-3.224-1.286-6.863-1.17-9.986,0.325c-3.1,1.482-5.456,4.218-6.463,7.502
	c-2.615,8.519-11.285,29.944-35.245,44.852c-4.995,3.107-7.115,9.134-5.156,14.656c2.501,7.051,7.853,22.796,12.625,41.063
	c-2.105,2.491-3.979,5.209-5.586,8.131c-1.784,3.247-3.168,6.638-4.173,10.113c-12.218-10.792-29.529-15.312-46.311-10.437
	c-25.599,7.44-40.536,33.995-33.831,59.631c-43.787,17.077-81.352,46.488-108.856,85.286C21.406,337.554,3.578,392.8,0.046,457.146
	c-0.45,8.198,2.415,16.002,8.065,21.971c5.581,5.894,13.436,9.276,21.551,9.276H361.36c4.14,0,7.497-3.356,7.497-7.497
	s-3.357-7.497-7.497-7.497H29.663c-4.073,0-7.861-1.63-10.662-4.591c-2.791-2.948-4.206-6.799-3.983-10.842
	c1.107-20.15,3.718-39.398,7.752-57.638c6.742,16.064,22.303,27.641,40.385,28.145c0.434,0.012,0.865,0.018,1.296,0.018
	c12.072,0,23.382-4.677,31.974-13.256c8.54-8.553,13.244-19.912,13.244-31.986c0-4.141-3.357-7.497-7.497-7.497
	c-4.14,0-7.497,3.356-7.497,7.497c0,8.072-3.147,15.67-8.852,21.384c-5.949,5.941-13.848,9.06-22.254,8.853
	c-16.201-0.451-29.381-14.298-29.381-30.867v-0.263c0.004-12.172,2.118-24.216,6.28-35.797c0.234-0.652,0.365-1.314,0.415-1.974
	c25.672-57.951,69.191-100.837,126.957-123.155c8.978,14.244,24.787,22.97,41.619,22.97c4.529,0,9.135-0.633,13.698-1.958
	c16.789-4.879,28.985-17.984,33.51-33.655c8.898,7.871,20.502,12.411,32.639,12.41c4.53,0,9.135-0.633,13.698-1.958
	c4.231-1.229,8.158-2.998,11.758-5.181c64.43,17.356,133.878,67.137,165.468,157.438c-3.635,10.512-14.169,17.194-26.843,16.845
	c-14.476-0.397-18.297-7.883-24.079-19.212c-4.139-8.107-8.829-17.297-18.445-23.637c-3.038-2.005-6.182-3.461-9.223-4.869
	c-4.336-2.007-8.079-3.74-10.306-6.47c-4.037-4.962-5.092-12.298-6.207-20.063c-2.124-14.78-5.025-35.042-35.112-34.405
	c-9.026,0.188-16.303,3.337-21.628,9.356c-12.931,14.619-10.187,41.582-7.981,63.245c0.643,6.314,1.197,11.768,1.197,15.658
	c0,8.065-3.15,15.663-8.87,21.392c-5.531,5.539-12.892,8.68-20.732,8.844c-12.885,0.252-20.852-6.944-25.269-13.049
	c-8.271-11.43-10.764-27.794-6.204-40.715l0.707-1.991c7.54-21.208,23.23-65.338-0.536-82.936
	c-5.207-3.849-12.024-4.993-18.706-3.134c-6.957,1.934-12.643,6.799-15.211,13.012c-2.838,6.855-2.658,14.065-2.267,20.295
	c1.093,17.016-0.979,27.694-6.518,33.599c-3.883,4.142-9.819,6.154-18.144,6.154c-9.829,0-20.003-5.305-24.745-12.903
	c-1.789-2.862-2.623-6.629-3.505-10.617c-1.158-5.231-2.472-11.161-6.257-16.516c-11.133-15.693-33.082-17.583-47.871-10.344
	c-17.302,8.468-21.565,26.499-23.453,43.024c-0.108,0.944-0.181,2.362-0.28,4.418c-0.047,0.969-0.088,1.867-0.128,2.363
	c-0.336,4.126,2.737,7.744,6.864,8.08c4.124,0.322,7.745-2.737,8.079-6.864c0.049-0.6,0.104-1.686,0.161-2.855
	c0.053-1.091,0.141-2.917,0.201-3.442c1.499-13.117,4.371-25.983,15.147-31.257c9.001-4.406,22.823-3.226,29.044,5.544
	c2.036,2.88,2.878,6.685,3.854,11.092c1.066,4.814,2.274,10.271,5.427,15.317c7.449,11.936,22.503,19.955,37.462,19.955
	c12.518,0,22.303-3.664,29.08-10.891c11.259-12.005,11.411-31.327,10.545-44.807c-0.299-4.751-0.456-9.716,1.157-13.614
	c0.796-1.924,2.904-3.61,5.373-4.297c1.042-0.289,3.691-0.798,5.772,0.742c14.835,10.985,0.662,50.852-4.674,65.86l-0.718,2.02
	c-6.125,17.359-2.832,39.261,8.195,54.499c9.008,12.449,22.014,19.261,36.714,19.26c0.338,0,0.679-0.003,1.019-0.011
	c11.727-0.244,22.745-4.947,31.026-13.24c8.546-8.559,13.253-19.919,13.253-31.985c0-4.651-0.591-10.455-1.274-17.176
	c-1.706-16.763-4.284-42.093,4.296-51.793c2.507-2.834,5.91-4.2,10.709-4.301c16.787-0.336,17.799,6.514,19.959,21.548
	c1.293,9.005,2.761,19.212,9.424,27.4c4.415,5.414,10.374,8.172,15.632,10.606c2.655,1.228,5.163,2.39,7.264,3.777
	c6.317,4.165,9.733,10.855,13.348,17.938c6.081,11.914,13.65,26.741,37.016,27.383c13.127,0.375,25.027-4.655,33.066-13.19
	c5.686,20.67,9.484,43.244,10.943,67.823c0.239,4.026-1.16,7.869-3.94,10.819c-2.809,2.98-6.61,4.621-10.703,4.621h-66.468
	c-4.14,0-7.497,3.355-7.497,7.497s3.357,7.497,7.497,7.497h66.468c8.147,0,16.026-3.401,21.614-9.332
	C509.593,473.075,512.432,465.266,511.946,457.072z M218.973,228.046c-18.096,5.252-37.09-5.186-42.346-23.276
	c-5.258-18.093,5.185-37.09,23.276-42.347c3.173-0.922,6.371-1.36,9.52-1.36c13.958,0,26.909,8.634,31.984,22.116
	c0.201,0.86,0.422,1.717,0.67,2.571c0.241,0.829,0.509,1.642,0.789,2.448C246.521,205.508,236.235,223.029,218.973,228.046z
	 M298.82,204.842c-17.248,5.009-35.306-4.25-41.512-20.798c-0.198-0.844-0.417-1.687-0.662-2.529
	c-0.246-0.847-0.515-1.679-0.802-2.502c-1.68-7.985-0.476-16.217,3.495-23.442c4.396-7.998,11.644-13.807,20.408-16.353
	c3.173-0.922,6.371-1.36,9.52-1.36c14.81,0,28.491,9.719,32.827,24.637C327.354,180.587,316.912,199.583,298.82,204.842z
	 M317.134,131.548l11.139-20.265c1.994-3.628,0.67-8.185-2.959-10.181c-3.629-1.995-8.187-0.671-10.182,2.959l-11.526,20.969
	c-8.835-2.707-18.524-2.973-28.042-0.209c-3.942,1.145-7.672,2.751-11.129,4.767c-3.979-14.392-8.041-26.575-10.448-33.47
	c24.766-16.117,35.151-38.224,39.033-49.394c28.23,10.231,51.917,1.614,65.566-6.154c0.757,15.687,6.176,40.304,29.945,58.653
	c-7.351,9.262-20.449,29.878-20.782,59.426c-6.398,1.496-17.133,4.159-29.623,7.848c-0.31-2.727-0.841-5.462-1.631-8.183
	C333.204,146.988,326.171,137.752,317.134,131.548z"/>
<path d="M208.491,170.425c-3.976,1.154-6.263,5.315-5.108,9.291c1.154,3.975,5.315,6.264,9.29,5.107
	c1.423-0.414,4.024-0.39,5.424,4.427c0.953,3.278,3.946,5.407,7.196,5.407c0.693,0,1.397-0.097,2.095-0.3
	c3.976-1.155,6.262-5.315,5.107-9.291C228.245,170.443,215.811,168.298,208.491,170.425z"/>
<path d="M298.19,147.133c-4.921-1.212-9.071-0.139-9.854,0.089c-3.976,1.155-6.262,5.315-5.107,9.291
	c1.155,3.977,5.316,6.259,9.291,5.107c0.007-0.004,1.075-0.179,2.085,0.072c0.611,0.15,2.232,0.549,3.338,4.354
	c0.953,3.278,3.946,5.407,7.196,5.407c0.693,0,1.397-0.097,2.096-0.3c3.976-1.155,6.262-5.315,5.107-9.291
	C309.279,151.323,302.162,148.11,298.19,147.133z"/>
<g>
</g>
<g>
</g>
<g>
</g>
<g>
</g>
<g>
</g>
<g>
</g>
<g>
</g>
<g>
</g>
<g>
</g>
<g>
</g>
<g>
</g>
<g>
</g>
<g>
</g>
<g>
</g>
<g>
</g>
</svg>
