<svg id="Capa_1" enable-background="new 0 0 512 512" height="512" viewBox="0 0 512 512" width="512" xmlns="http://www.w3.org/2000/svg"><g><g><path d="m450.163 499.416-28.701-22.379 62.75-38.648 5.817 37.616c3.441 22.255-22.107 37.258-39.866 23.411z" fill="#ffd064"/></g><g><path d="m490.029 476.005-5.817-37.616-16.889 10.402 3.748 24.238c2.155 13.937-7.06 25.028-18.611 27.972 17.576 10.961 40.865-3.683 37.569-24.996z" fill="#ffc250"/></g><g><path d="m182.743 499.416 28.701-22.379-62.75-38.648-5.817 37.616c-3.441 22.255 22.107 37.258 39.866 23.411z" fill="#ffd064"/></g><g><path d="m144.944 462.641 43.41 32.4 23.09-18.003-62.75-38.648z" fill="#ffc250"/></g><g><path d="m224.123 342.686-33.327 14.1c-18.705 7.914-33.34 23.161-40.481 42.174l-6.762 18.005c-3.428 9.127-.41 19.42 7.403 25.252l50.807 37.922c7.895 5.892 18.752 5.789 26.533-.254l42.146-32.729z" fill="#ffd064"/></g><g><path d="m224.123 342.686-33.327 14.1c-15.405 6.518-28.038 18.017-36.009 32.491 1.229 2.738 2.8 5.358 4.715 7.797l63.272 80.592c1.044 1.33 2.183 2.546 3.395 3.658.728-.439 1.443-.908 2.127-1.439l42.145-32.729z" fill="#ffc250"/></g><g><path d="m326.361 303.507c11.765-20.633 18.491-44.512 18.491-69.963 0-78.125-63.333-141.458-141.458-141.458s-141.458 63.333-141.458 141.458c0 25.451 6.726 49.33 18.491 69.963z" fill="#e4989d"/></g><g><path d="m203.394 92.086c-7.966 0-15.776.669-23.383 1.935 66.996 11.146 118.075 69.365 118.075 139.523 0 25.451-6.726 49.33-18.491 69.963h46.766c11.765-20.633 18.491-44.512 18.491-69.963 0-78.125-63.333-141.458-141.458-141.458z" fill="#e28086"/></g><g><path d="m326.781 341.228h-246.775c-24.728 0-44.775-20.046-44.775-44.775 0-16.937 13.731-30.668 30.668-30.668h274.988c16.937 0 30.668 13.731 30.668 30.668.001 24.729-20.046 44.775-44.774 44.775z" fill="#9d6b6b"/></g><g><path d="m353.534 268.516c-.185 24.57-20.153 44.432-44.766 44.432h-246.774c-9.702 0-18.675-3.096-26.007-8.339 3.836 20.832 22.079 36.619 44.02 36.619h246.774c24.728 0 44.775-20.046 44.775-44.775 0-12.426-7.396-23.119-18.022-27.937z" fill="#8b5e5e"/></g><g><path d="m60.482 212.415c-.521 0-1.04.01-1.556.03-1.577.062-2.916 1.149-3.391 2.654-3.467 10.976-11.56 19.897-21.992 24.475-10.536 4.623-15.342 17.062-10.166 27.337 7.197 13.845 20.93 19.003 37.415 19.295 21.679.385 38.849-11.088 39.491-32.761.669-22.544-17.407-41.03-39.801-41.03z" fill="#f9efda"/></g><g><path d="m131.783 212.415c-.521 0-1.04.01-1.556.03-1.577.062-2.916 1.149-3.391 2.654-3.467 10.976-11.56 19.897-21.992 24.475-10.536 4.623-15.342 17.062-10.166 27.337 7.197 13.845 20.93 19.003 37.415 19.295 21.679.385 38.849-11.088 39.491-32.761.669-22.544-17.408-41.03-39.801-41.03z" fill="#f9efda"/></g><g><path d="m203.083 212.415c-.521 0-1.04.01-1.556.03-1.577.062-2.916 1.149-3.391 2.654-3.467 10.976-11.56 19.897-21.992 24.475-10.536 4.623-15.342 17.062-10.166 27.337 7.197 13.845 20.93 19.003 37.415 19.295 21.679.385 38.849-11.088 39.491-32.761.669-22.544-17.407-41.03-39.801-41.03z" fill="#f9efda"/></g><g><path d="m274.384 212.415c-.521 0-1.04.01-1.556.03-1.577.062-2.916 1.149-3.391 2.654-3.467 10.976-11.56 19.897-21.992 24.475-10.536 4.623-15.342 17.062-10.166 27.337 7.197 13.845 20.93 19.003 37.415 19.295 21.679.385 38.849-11.088 39.491-32.761.669-22.544-17.408-41.03-39.801-41.03z" fill="#f9efda"/></g><g><path d="m345.684 212.415c-.521 0-1.04.01-1.556.03-1.577.062-2.916 1.149-3.391 2.654-3.467 10.976-11.56 19.897-21.992 24.475-10.536 4.623-15.342 17.062-10.166 27.337 7.197 13.845 20.93 19.003 37.415 19.295 21.679.385 38.849-11.088 39.491-32.761.669-22.544-17.407-41.03-39.801-41.03z" fill="#f9efda"/></g><g><path d="m74.522 214.964c1.674 4.603 2.533 9.597 2.379 14.813-.642 21.673-17.812 33.146-39.491 32.761-5.722-.101-11.1-.807-16-2.24.25 2.238.889 4.472 1.968 6.613 7.197 13.845 20.93 19.003 37.415 19.295 21.679.385 38.849-11.088 39.491-32.761.521-17.569-10.343-32.67-25.762-38.481z" fill="#f4ddb1"/></g><g><path d="m145.823 214.964c1.674 4.603 2.533 9.597 2.379 14.813-.642 21.673-17.812 33.146-39.491 32.761-5.722-.101-11.1-.807-16-2.24.25 2.238.889 4.472 1.968 6.613 7.197 13.845 20.93 19.003 37.415 19.295 21.679.385 38.849-11.088 39.491-32.761.52-17.569-10.344-32.67-25.762-38.481z" fill="#f4ddb1"/></g><g><path d="m217.123 214.964c1.674 4.603 2.533 9.597 2.379 14.813-.642 21.673-17.812 33.146-39.491 32.761-5.722-.101-11.1-.807-16-2.24.25 2.238.889 4.472 1.968 6.613 7.197 13.845 20.93 19.003 37.415 19.295 21.679.385 38.849-11.088 39.491-32.761.521-17.569-10.343-32.67-25.762-38.481z" fill="#f4ddb1"/></g><g><path d="m288.424 214.964c1.674 4.603 2.533 9.597 2.379 14.813-.642 21.673-17.812 33.146-39.491 32.761-5.722-.101-11.1-.807-16-2.24.25 2.238.889 4.472 1.968 6.613 7.197 13.845 20.93 19.003 37.415 19.295 21.679.385 38.849-11.088 39.491-32.761.52-17.569-10.344-32.67-25.762-38.481z" fill="#f4ddb1"/></g><g><path d="m359.724 214.964c1.674 4.603 2.533 9.597 2.379 14.813-.642 21.673-17.812 33.146-39.491 32.761-5.722-.101-11.1-.807-16-2.24.25 2.238.889 4.472 1.968 6.613 7.197 13.845 20.93 19.003 37.415 19.295 21.679.385 38.849-11.088 39.491-32.761.521-17.569-10.343-32.67-25.762-38.481z" fill="#f4ddb1"/></g><g><path d="m255.277 82.452c-8.161 1.893-16.312-3.188-18.205-11.349s3.188-16.312 11.349-18.205c6.518-1.512 25.928 3.918 33.48 6.166 1.366.407 1.769 2.145.722 3.112-5.791 5.342-20.828 18.764-27.346 20.276z" fill="#b3e59f"/></g><g><path d="m282.622 62.175c1.047-.966.644-2.705-.722-3.112-2.404-.716-6.011-1.753-10.02-2.787-6.733 5.768-15.134 12.332-19.577 13.363-5.862 1.36-11.706-.891-15.242-5.285-.486 2.158-.524 4.45.01 6.749 1.893 8.161 10.044 13.242 18.205 11.349 6.519-1.512 21.556-14.934 27.346-20.277z" fill="#95d6a4"/></g><g><path d="m207.927 35.102c-1.893 8.161 3.188 16.312 11.349 18.205s16.312-3.188 18.205-11.349c1.512-6.518-3.918-25.928-6.166-33.48-.407-1.366-2.145-1.769-3.112-.722-5.342 5.791-18.764 20.828-20.276 27.346z" fill="#b3e59f"/></g><g><path d="m237.481 41.959c1.512-6.518-3.918-25.928-6.166-33.48-.407-1.366-2.145-1.769-3.112-.722-1.636 1.773-4.031 4.415-6.608 7.412 2.344 8.848 4.898 20.352 3.802 25.079-1.295 5.582-5.519 9.72-10.67 11.174 1.37.848 2.892 1.501 4.549 1.885 8.161 1.894 16.312-3.187 18.205-11.348z" fill="#95d6a4"/></g><g><path d="m250.567 61.265c-5.924 5.924-15.529 5.924-21.453 0s-5.924-15.529 0-21.453c4.731-4.731 24.076-10.392 31.674-12.479 1.374-.378 2.636.885 2.259 2.259-2.088 7.597-7.749 26.941-12.48 31.673z" fill="#b3e59f"/></g><g><path d="m263.046 29.591c.378-1.374-.885-2.636-2.259-2.259-2.418.664-6.028 1.692-9.977 2.935-2.663 8.456-6.319 18.471-9.544 21.696-4.255 4.255-10.405 5.437-15.731 3.579.729 2.088 1.91 4.054 3.578 5.722 5.924 5.924 15.529 5.924 21.453 0 4.732-4.731 10.393-24.075 12.48-31.673z" fill="#95d6a4"/></g><g><path d="m245.581 113.261c-16.264 16.264-72.691 34.457-88.669 18.478s2.214-72.405 18.478-88.669 36.087-4.662 55.47 14.721 30.986 39.205 14.721 55.47z" fill="#dd636e"/></g><g><path d="m230.86 57.791c-3.24-3.24-6.492-6.255-9.738-8.966 13.509 16.172 19.3 32.186 5.754 45.732-13.155 13.155-52.581 27.568-75.631 24.144.809 5.448 2.611 9.984 5.666 13.038 15.978 15.978 72.405-2.214 88.669-18.478s4.663-36.088-14.72-55.47z" fill="#da4a54"/></g><g><path d="m408.783 342.686 33.327 14.1c18.705 7.914 33.34 23.161 40.481 42.174l6.762 18.005c3.428 9.127.41 19.42-7.403 25.252l-50.807 37.922c-7.895 5.892-18.752 5.789-26.533-.254l-42.145-32.729z" fill="#ffd064"/></g><g><path d="m489.353 416.964-1.954-5.204c-1.47 2.649-3.495 5.025-6.038 6.923l-58.875 43.943c-3.129 2.335-7.431 2.294-10.515-.1l-41.897-32.536-7.61 17.165 42.146 32.729c7.781 6.042 18.638 6.146 26.533.254l50.807-37.921c7.813-5.832 10.83-16.126 7.403-25.253z" fill="#ffc250"/></g><g><path d="m175.735 341.664c12.676-18.249 33.042-29.651 55.225-30.919l31.836-1.819 43.672 151.245-27.837 14.729c-13.061 6.911-29.197 3.484-38.322-8.139l-63.272-80.592c-10.16-12.94-10.688-30.993-1.302-44.505z" fill="#ffd064"/></g><g><path d="m262.796 308.926-31.837 1.819c-5.687.325-11.253 1.321-16.603 2.922l37.708 130.593c2.353 8.149-1.333 16.83-8.83 20.797l-3.013 1.594.086.11c9.127 11.622 25.264 15.048 38.326 8.137l27.833-14.727z" fill="#ffc250"/></g><g><path d="m464.523 341.664c-12.676-18.249-33.042-29.651-55.225-30.919l-31.837-1.819-43.671 151.245 27.837 14.729c13.061 6.911 29.197 3.484 38.322-8.139l63.272-80.592c10.16-12.94 10.688-30.993 1.302-44.505z" fill="#ffd064"/></g><g><path d="m464.523 341.664c-2.126-3.061-4.472-5.923-7.003-8.583 2.546 10.849.184 22.553-6.998 31.702l-70.373 89.636c-5.014 6.387-13.881 8.27-21.058 4.472l-21.627-11.443-3.674 12.723 27.837 14.729c13.061 6.911 29.197 3.484 38.322-8.139l63.272-80.592c10.16-12.94 10.688-30.993 1.302-44.505z" fill="#ffc250"/></g><g><path d="m378.256 278.21-12.616-5.907c-28.817-13.493-62.136-13.499-90.958-.016l-12.669 5.927c-10.802 5.053-17.704 15.901-17.704 27.826 0 21.566 3.197 43.012 9.485 63.641l26.725 87.66c3.149 10.329 12.679 17.386 23.477 17.386h32.266c10.798 0 20.328-7.057 23.477-17.386l26.725-87.66c6.289-20.628 9.485-42.075 9.485-63.641v-.008c0-11.922-6.897-22.767-17.693-27.822z" fill="#ffd064"/></g><g><path d="m378.256 278.21-12.616-5.907c-20.445-9.573-43.156-12.349-64.92-8.343 8.924 1.642 17.69 4.418 26.074 8.343l12.616 5.907c10.797 5.055 17.694 15.9 17.694 27.821v.008c0 21.566-3.197 43.012-9.486 63.641l-26.725 87.66c-2.824 9.264-10.786 15.878-20.187 17.147 1.081.146 2.176.239 3.29.239h32.266c10.798 0 20.328-7.057 23.477-17.386l26.725-87.66c6.289-20.628 9.486-42.075 9.486-63.641v-.008c-.001-11.921-6.898-22.766-17.694-27.821z" fill="#ffc250"/></g><g><path d="m492.087 442.138c5.837-7.811 7.554-18.286 4.015-27.708l-6.762-18.004c-2.974-7.92-7.141-15.262-12.38-21.874 3.334-12.395 1.198-25.897-6.515-37.001-14.036-20.206-36.173-32.6-60.735-34.003l-6.665-.381c-.884-11.549-7.071-22.088-16.58-28.539 3.862-5.984 5.995-13.112 6.228-20.968.381-12.84-4.329-24.978-13.262-34.18-8.071-8.313-18.631-13.238-30.049-14.117-9.382-48.828-42.929-89.996-88.894-109.125.016-2.503-.278-5.066-.877-7.679 6.185-2.616 15.542-9.681 27.901-21.085 5.137-4.458 3.019-13.579-3.555-15.32-4.42-1.315-11.73-3.378-18.783-4.869 1.571-4.541 3.179-9.8 4.823-15.782 2.004-6.501-4.621-13.125-11.12-11.122-5.983 1.644-11.242 3.253-15.783 4.823-1.483-7.017-3.533-14.294-4.869-18.783-1.74-6.575-10.863-8.69-15.32-3.553-10.718 11.614-17.611 20.583-20.574 26.756-11.988-3.518-23.03-.66-32.039 8.349-8.923 8.923-18.256 28.121-23.222 47.773-.811 3.209-1.648 7.025-2.306 11.142-14.211 6.102-27.339 14.363-39.057 24.585-3.001 2.618-3.311 7.172-.694 10.172 1.425 1.634 3.425 2.47 5.436 2.47 1.681 0 3.37-.585 4.736-1.777 8.662-7.556 18.18-13.912 28.381-18.996.283 8.996 2.431 17.679 8.247 23.495 11.991 12.105 36.919 8.363 51.092 4.744 19.652-4.967 38.85-14.299 47.773-23.223 2.519-2.519 4.543-5.2 6.096-8.013 41.067 17.813 70.821 55.216 78.737 99.352-.71.963-1.277 2.047-1.65 3.231-2.695 8.534-8.788 15.562-16.815 19.479-2.195-4.712-5.181-9.08-8.917-12.928-8.936-9.204-20.92-14.274-33.746-14.274-5.202-.395-10.254 2.584-11.822 7.723-2.696 8.534-8.789 15.563-16.815 19.479-2.195-4.712-5.181-9.08-8.917-12.928-8.936-9.204-20.92-14.274-33.746-14.274-5.202-.395-10.254 2.584-11.822 7.723-2.696 8.534-8.789 15.562-16.815 19.479-2.195-4.712-5.181-9.08-8.917-12.928-8.936-9.204-20.92-14.274-33.746-14.274-5.202-.395-10.254 2.584-11.822 7.723-2.696 8.534-8.789 15.563-16.815 19.479-2.195-4.712-5.181-9.08-8.917-12.928-6.223-6.41-13.927-10.808-22.361-12.891 3.81-18.617 11.641-36.451 22.844-51.869 2.341-3.221 1.627-7.73-1.594-10.07-3.223-2.342-7.731-1.626-10.07 1.594-12.743 17.538-21.564 37.899-25.651 59.129-4.044.638-7.469 3.545-8.735 7.556-2.829 8.956-9.394 16.262-18.014 20.044-6.952 3.05-12.406 8.878-14.964 15.989-2.53 7.034-2.084 14.56 1.299 21.276 3.157 6.072 7.463 10.943 12.852 14.641-1.192 3.726-1.811 7.639-1.811 11.576 0 28.664 23.32 51.984 51.985 51.984h84.254c-2.176 6.235-2.919 12.808-2.238 19.262-8.074 8.131-14.43 18.004-18.457 28.725l-6.762 18.005c-3.539 9.422-1.822 19.897 4.014 27.707l-5.067 32.767c-2.053 13.28 3.869 25.758 15.457 32.562 11.528 6.778 25.331 5.93 35.967-2.364l18.944-14.771c9.031 2.829 18.947 1.173 26.599-4.752l9.306-7.227c6.521 4.783 14.362 7.314 22.324 7.314 5.992 0 12.05-1.428 17.654-4.393l6.422-3.398c4.631 2.596 9.946 4.061 15.571 4.061h32.266c5.625 0 10.94-1.466 15.571-4.061l6.423 3.398c5.605 2.965 11.661 4.393 17.654 4.393 6.382 0 12.69-1.622 18.301-4.728l5.977 4.642c7.652 5.926 17.566 7.581 26.598 4.752l18.944 14.771c10.636 8.296 24.437 9.141 35.966 2.365 11.588-6.805 17.511-19.282 15.458-32.563zm-221.619-378.779c-8.618 7.405-14.122 11.033-16.314 11.898-.992-1.712-2.112-3.455-3.345-5.229 4.01-2.321 6.246-4.628 8.679-9.178 3.592.675 7.474 1.599 10.98 2.509zm-24.999-7.192c-1.374 1.374-2.893 1.949-4.106 2.181-2.819-3.098-6.196-6.52-9.313-9.444.313-1.513 1.05-2.883 2.161-3.994 1.289-1.264 7.357-4.201 19.15-7.893-3.692 11.793-6.628 17.862-7.892 19.15zm-18.449-36.257c.912 3.513 1.832 7.391 2.507 10.982-4.431 2.379-6.663 4.481-8.984 8.324-1.757-1.291-3.485-2.476-5.181-3.536 1.187-2.486 4.803-7.793 11.658-15.77zm13.463 88.253c-7.13 7.129-24.035 15.123-41.111 19.438-17.653 4.462-32.319 4.085-37.363-.96s-5.421-19.71-.96-37.363c4.316-17.076 12.309-33.981 19.438-41.111 3.774-3.774 7.667-5.612 12.11-5.612 2.177 0 4.487.441 6.979 1.312 7.413 2.592 15.979 8.814 26.186 19.021s16.428 18.772 19.02 26.186c2.65 7.579 1.325 13.466-4.299 19.089zm81.159 138.013c11.654-5.114 20.705-14.701 25.15-26.533 8.474.279 16.354 3.762 22.292 9.88 6.194 6.38 9.459 14.8 9.195 23.709-.173 5.824-1.795 10.776-4.792 14.786l-4.791-2.243c-15.062-7.052-31.207-10.652-47.378-10.819.199-2.836.077-5.715-.253-8.495.193-.097.381-.199.577-.285zm-71.3 0c11.654-5.114 20.705-14.701 25.15-26.533 8.474.279 16.354 3.762 22.292 9.88 6.194 6.38 9.459 14.8 9.195 23.708-.025.851-.093 1.682-.18 2.502-12.034 1.419-23.906 4.754-35.172 10.025-3.613 1.795-14.318 6.367-17.47 8.62-2.801-1.537-5.172-3.448-7.157-5.797 2.754-6.481 3.703-14.782 2.767-22.106.193-.098.376-.212.575-.299zm-71.301 0c11.654-5.114 20.705-14.701 25.15-26.533 8.474.279 16.354 3.762 22.292 9.88 6.194 6.38 9.459 14.8 9.195 23.709-.575 19.408-16.995 26.067-32.158 25.766-12.962-.229-22.079-3.647-27.819-10.426 2.753-6.483 3.7-14.786 2.761-22.111.194-.096.383-.199.579-.285zm-71.3 0c11.654-5.114 20.705-14.701 25.15-26.533 8.474.279 16.354 3.762 22.292 9.88 6.193 6.38 9.459 14.8 9.195 23.709-.575 19.408-16.994 26.067-32.157 25.766-12.951-.229-22.074-3.651-27.817-10.431 2.75-6.478 3.697-14.774 2.761-22.094.194-.096.377-.21.576-.297zm-78.492 7.666c1.225-3.404 3.846-6.198 7.191-7.666 11.654-5.114 20.705-14.701 25.15-26.533 8.474.279 16.354 3.762 22.292 9.88 6.193 6.38 9.459 14.8 9.195 23.709-.575 19.408-16.993 26.043-32.157 25.766-15.712-.278-25.9-5.319-31.104-15.33-1.543-3.063-1.744-6.553-.567-9.826zm13.192 42.611c0-1.845.226-3.679.651-5.461 5.247 1.493 11.104 2.308 17.573 2.423 14.471.326 27.339-4.364 35.516-12.571 8.411 8.07 20.404 12.298 35.785 12.571 14.475.326 27.345-4.366 35.521-12.577 8.414 8.069 20.406 12.304 35.779 12.577 14.476.326 27.347-4.367 35.524-12.579 1.508 1.446 3.122 2.782 4.86 3.983-3.646 5.394-5.925 11.699-6.435 18.348l-6.665.381c-23.097 1.32-44.047 12.359-58.135 30.471h-92.408c-20.714 0-37.566-16.852-37.566-37.566zm135.869 197.278c-6.973 5.437-14.801 4.236-19.799 1.302-5-2.936-9.86-9.186-8.509-17.925l3.689-23.854 39.102 29.185zm67.669-31.422-40.001-50.95c-2.459-3.132-6.992-3.677-10.122-1.218-3.132 2.459-3.678 6.991-1.218 10.122l37.375 47.606-8.138 6.32c-5.202 4.04-12.52 4.11-17.799.17l-50.807-37.921c-5.209-3.888-7.251-10.854-4.966-16.94l6.762-18.004c2.377-6.328 5.755-12.283 9.917-17.622 1.243 2.34 2.699 4.602 4.385 6.749 2.876 4.507 8.207 10.123 13.642 5.7 3.132-2.459 3.677-6.991 1.218-10.123l-3.518-4.481c-8.256-10.516-8.679-24.96-1.051-35.941 12.577-18.467 33.635-28.244 55.746-28.179.941 18.371 4.12 36.549 9.496 54.184l26.724 87.66c.88 2.885 2.151 5.552 3.715 7.985-10.23 6.461-23.862 4.554-31.36-5.117zm119.02 6.218-2.079-1.1c1.563-2.434 2.835-5.1 3.715-7.985l11.214-36.781c1.161-3.808-.985-7.838-4.794-8.998-3.808-1.163-7.838.985-8.998 4.794l-11.214 36.781c-2.239 7.345-8.903 12.279-16.581 12.279h-32.266c-7.676.008-14.341-4.964-16.581-12.279l-26.724-87.66c-6.086-19.963-9.172-40.667-9.172-61.538 0-9.087 5.318-17.446 13.549-21.296l12.669-5.926c26.963-12.613 57.889-12.607 84.847.015l12.616 5.907c8.226 3.852 13.541 12.209 13.541 21.3 0 20.869-3.086 41.574-9.172 61.538l-6.148 20.166c-1.161 3.808.985 7.837 4.794 8.998 3.807 1.162 7.838-.985 8.998-4.794l6.148-20.166c5.376-17.635 8.554-35.811 9.496-54.184 22.112-.065 43.168 9.712 55.746 28.179 7.628 10.981 7.205 25.424-1.052 35.941l-63.271 80.592c-6.979 8.887-19.293 11.502-29.281 6.217zm44.032 5.663-3.577-2.778c.054-.068.112-.131.166-.199l63.271-80.592c.32-.407.627-.821.931-1.236 2.401 3.813 4.422 7.858 6.019 12.109l6.762 18.004c2.285 6.086.243 13.051-4.966 16.94l-50.807 37.922c-5.277 3.94-12.597 3.87-17.799-.17zm65.364 20.842c-5 2.936-12.827 4.136-19.799-1.302l-14.483-11.293 39.102-29.184 3.689 23.853c1.351 8.74-3.51 14.99-8.509 17.926z"/><circle cx="191.875" cy="63.144" r="7.3"/><circle cx="212.92" cy="84.19" r="7.3"/><circle cx="182.715" cy="114.395" r="7.3"/><circle cx="187.391" cy="88.674" r="7.3"/><circle cx="208.436" cy="109.719" r="7.3"/></g></g></svg>