<svg height="512" viewBox="0 0 512 512" width="512" xmlns="http://www.w3.org/2000/svg"><g id="filled_outline" data-name="filled outline"><circle cx="256" cy="256" fill="#ea9d2d" r="232"/><path d="m256 24.5c-127.854 0-231.5 103.646-231.5 231.5s103.646 231.5 231.5 231.5 231.5-103.646 231.5-231.5-103.646-231.5-231.5-231.5zm120 71.5a200.935 200.935 0 0 1 39.975 40h-39.975zm-96-38.562a198.786 198.786 0 0 1 48 11.936v66.626h-48zm0 126.562h48v48h-48zm48 96v48h-48v-48zm-144-210.626a198.8 198.8 0 0 1 48-11.936v78.562h-48zm0 114.626h48v48h-48zm48 96v48h-48v-48zm-96-184v40h-39.975a200.935 200.935 0 0 1 39.975-40zm-48 88h48v48h-48zm0 96h48v48h-48zm8.025 96h39.975v40a200.935 200.935 0 0 1 -39.975-40zm87.975 66.626v-66.626h48v78.562a198.8 198.8 0 0 1 -48-11.936zm96 11.936v-78.562h48v66.626a198.786 198.786 0 0 1 -48 11.936zm96-38.562v-40h39.975a200.935 200.935 0 0 1 -39.975 40zm48-88h-48v-48h48zm-48-96v-48h48v48z" fill="#f3af3e"/><path d="m256 24c-128.13 0-232 103.87-232 232s103.87 232 232 232 232-103.87 232-232-103.87-232-232-232zm0 432c-110.457 0-200-89.543-200-200s89.543-200 200-200 200 89.543 200 200-89.543 200-200 200z" fill="#ea9d2d"/><path d="m216 192 24 32h32l24-32h-24l-16-24-16 24z" fill="#6b9777"/><path d="m292.233 276.592-12.3 21.516a27.57 27.57 0 0 1 -23.933 13.892 27.57 27.57 0 0 1 -23.938-13.892l-12.3-21.516a40.5 40.5 0 0 1 .435-40.929 40.5 40.5 0 0 1 34.733-19.663h2.14a40.5 40.5 0 0 1 34.73 19.663 40.5 40.5 0 0 1 .433 40.929z" fill="#dc4d41"/><g fill="#b94137"><path d="m264 248h16v16h-16z"/><path d="m248 272h16v16h-16z"/><path d="m232 248h16v16h-16z"/></g><path d="m333.684 249.221-8.06 39.18 21.206 23.965 39.869-3.232-15.905-17.974 7.371-27.887-28.576 3.922z" fill="#6b9777"/><path d="m320.851 362.37-24.261 5.051a27.572 27.572 0 0 1 -26.267-8.722 27.57 27.57 0 0 1 -5.459-27.133l7.965-23.466a40.5 40.5 0 0 1 30.941-26.8 40.5 40.5 0 0 1 37.739 12.978l1.418 1.6a40.5 40.5 0 0 1 8.288 39.038 40.5 40.5 0 0 1 -30.364 27.454z" fill="#dc4d41"/><path d="m314.865 325.571h16v16h-16z" fill="#b94137" transform="matrix(.749 -.663 .663 .749 -139.982 297.729)"/><path d="m286.288 329.493h16v16h-16z" fill="#b94137" transform="matrix(.749 -.663 .663 .749 -149.757 279.776)"/><path d="m293.659 301.606h16v16h-16z" fill="#b94137" transform="matrix(.749 -.663 .663 .749 -129.425 277.658)"/><path d="m376 240h48a8 8 0 0 0 8-8v-48a8 8 0 0 0 -8-8h-48a8 8 0 0 0 -8 8v48a8 8 0 0 0 8 8zm8-48h32v32h-32z"/><path d="m136 176h-48a8 8 0 0 0 -8 8v48a8 8 0 0 0 8 8h48a8 8 0 0 0 8-8v-48a8 8 0 0 0 -8-8zm-8 48h-32v-32h32z"/><path d="m136 272h-48a8 8 0 0 0 -8 8v48a8 8 0 0 0 8 8h48a8 8 0 0 0 8-8v-48a8 8 0 0 0 -8-8zm-8 48h-32v-32h32z"/><path d="m425.705 86.3a240 240 0 1 0 -339.405 339.405 240 240 0 1 0 339.405-339.405zm-169.705 393.2a223.5 223.5 0 0 1 -158.038-381.538 223.5 223.5 0 1 1 316.076 316.076 222.035 222.035 0 0 1 -158.038 65.462z"/><path d="m256 48c-114.691 0-208 93.309-208 208s93.309 208 208 208 208-93.309 208-208-93.309-208-208-208zm142.976 80h-14.976v-14.976a193.784 193.784 0 0 1 14.976 14.976zm-110.976-61.319a190.46 190.46 0 0 1 32 8.3v53.019h-32zm-96 8.3a190.46 190.46 0 0 1 32-8.3v61.319h-32zm-64 38.042v14.977h-14.976a193.784 193.784 0 0 1 14.976-14.976zm-14.976 270.977h14.976v14.976a193.784 193.784 0 0 1 -14.976-14.976zm110.976 61.319a190.46 190.46 0 0 1 -32-8.3v-53.019h32zm16 2.009v-71.328a8 8 0 0 0 -8-8h-48a8 8 0 0 0 -8 8v54.518a192.107 192.107 0 0 1 -32-18.665v-35.853a8 8 0 0 0 -8-8h-35.853a191.587 191.587 0 0 1 0-224h35.853a8 8 0 0 0 8-8v-35.853a192.107 192.107 0 0 1 32-18.665v54.518a8 8 0 0 0 8 8h48a8 8 0 0 0 8-8v-71.328c5.277-.437 10.612-.672 16-.672s10.723.235 16 .672v71.328a8 8 0 0 0 8 8h48a8 8 0 0 0 8-8v-54.518a192.107 192.107 0 0 1 32 18.665v35.853a8 8 0 0 0 8 8h35.853a191.587 191.587 0 0 1 0 224h-35.853a8 8 0 0 0 -8 8v35.853a192.107 192.107 0 0 1 -32 18.665v-54.518a8 8 0 0 0 -6.479-7.851 48.286 48.286 0 0 0 31.408-48.9l7.071-.575v9.326a8 8 0 0 0 8 8h48a8 8 0 0 0 8-8v-48a8 8 0 0 0 -8-8h-39.865l1.768-6.685a8 8 0 0 0 -8.823-9.971l-24.337 3.347-13.072-14.773a8 8 0 0 0 -13.827 3.69l-5.344 25.962a48.308 48.308 0 0 0 -18.007-.161 48.137 48.137 0 0 0 .169-33.409h25.338a8 8 0 0 0 8-8v-48a8 8 0 0 0 -8-8h-48a7.992 7.992 0 0 0 -6.666 3.58l-10.678-16.018a8 8 0 0 0 -13.312 0l-10.678 16.018a7.992 7.992 0 0 0 -6.666-3.58h-48a8 8 0 0 0 -8 8v48a8 8 0 0 0 8 8h25.336a48.607 48.607 0 0 0 -.345 32h-24.991a8 8 0 0 0 -8 8v48a8 8 0 0 0 8 8h48a8 8 0 0 0 8-8v-11.806a35.408 35.408 0 0 0 20.438 3.523l-3.15 9.277a35.5 35.5 0 0 0 16.188 42.386 7.958 7.958 0 0 0 -1.476 4.62v71.328c-5.277.437-10.611.672-16 .672s-10.723-.235-16-.672zm80-255.328v32h-26.925a47.643 47.643 0 0 0 -6.552-6.026l15.877-21.174a7.979 7.979 0 0 0 1.584-4.8zm-40 8-7.823 10.436a48.684 48.684 0 0 0 -15.107-2.436h-2.14a48.724 48.724 0 0 0 -15.107 2.434l-7.823-10.434h8a8 8 0 0 0 6.656-3.562l9.344-14.016 9.344 14.016a8 8 0 0 0 6.656 3.562zm-71.982-8a7.979 7.979 0 0 0 1.584 4.8l15.876 21.173a47.711 47.711 0 0 0 -6.554 6.027h-26.924v-32zm9.057 96 6.925 12.124v19.876h-32v-32zm21.973 6.212-.007-.012q-.045-.084-.093-.168l-12.233-21.412a32.549 32.549 0 0 1 .351-32.854 32.5 32.5 0 0 1 9.512-10.085c.738-.515 1.511-1 2.356-1.472.514-.294 1.061-.581 1.7-.893a32.51 32.51 0 0 1 14.296-3.316h2.14a32.556 32.556 0 0 1 14.332 3.334 32.55 32.55 0 0 1 13.535 12.437 32.493 32.493 0 0 1 .347 32.851l-7.784 13.633a48.46 48.46 0 0 0 -10.121 14.1 19.563 19.563 0 0 1 -28.33-6.138zm33.391 39.925 7.966-23.465a32.537 32.537 0 0 1 24.83-21.5 32.075 32.075 0 0 1 5.877-.541 32.694 32.694 0 0 1 24.407 10.955l1.418 1.6a32.5 32.5 0 0 1 -17.716 53.353l-24.26 5.051a19.572 19.572 0 0 1 -22.522-25.452zm92.361-37.671 5.3 5.987-13.014 1.058a48.183 48.183 0 0 0 -8.175-12.93l-1.418-1.6a48.143 48.143 0 0 0 -11.841-9.688l2.633-12.786 5.307 6a8 8 0 0 0 7.081 2.624l16.684-2.295-4.307 16.283a7.994 7.994 0 0 0 1.75 7.347zm19.2 20.91 3.349-.272a8 8 0 0 0 5.341-13.276l-8.69-9.818v-6.01h32v32h-32zm-64 66.624v53.018a190.46 190.46 0 0 1 -32 8.3v-61.318zm64 14.976v-14.976h14.976a193.784 193.784 0 0 1 -14.976 14.976z"/><path d="m264 248h16v16h-16z"/><path d="m248 272h16v16h-16z"/><path d="m232 248h16v16h-16z"/><path d="m314.865 325.571h16v16h-16z" transform="matrix(.749 -.663 .663 .749 -139.982 297.729)"/><path d="m286.288 329.493h16v16h-16z" transform="matrix(.749 -.663 .663 .749 -149.757 279.776)"/><path d="m293.659 301.606h16v16h-16z" transform="matrix(.749 -.663 .663 .749 -129.425 277.658)"/></g></svg>