<?xml version="1.0"?>
<svg xmlns="http://www.w3.org/2000/svg" xmlns:xlink="http://www.w3.org/1999/xlink" xmlns:svgjs="http://svgjs.com/svgjs" version="1.1" width="512" height="512" x="0" y="0" viewBox="0 0 512 512" style="enable-background:new 0 0 512 512" xml:space="preserve" class=""><g>
<path xmlns="http://www.w3.org/2000/svg" style="" d="M469.333,64H42.667C19.146,64,0,83.135,0,106.667v298.667C0,428.865,19.146,448,42.667,448h426.667  C492.854,448,512,428.865,512,405.333V106.667C512,83.135,492.854,64,469.333,64z" fill="#303c42" data-original="#303c42" class=""/>
<path xmlns="http://www.w3.org/2000/svg" style="" d="M490.667,405.333c0,11.76-9.563,21.333-21.333,21.333H42.667c-11.771,0-21.333-9.573-21.333-21.333  V106.667c0-11.76,9.563-21.333,21.333-21.333h426.667c11.771,0,21.333,9.573,21.333,21.333V405.333z" fill="#ff9d09" data-original="#fff7eb" class=""/>
<path xmlns="http://www.w3.org/2000/svg" style="" d="M458.667,106.667H53.333c-5.896,0-10.667,4.771-10.667,10.667v277.333  c0,5.896,4.771,10.667,10.667,10.667h405.333c5.896,0,10.667-4.771,10.667-10.667V117.333  C469.333,111.438,464.563,106.667,458.667,106.667z" fill="#303c42" data-original="#303c42" class=""/>
<rect xmlns="http://www.w3.org/2000/svg" x="64" y="128" style="" width="384" height="256" fill="#ff9d09" data-original="#fff7eb" class=""/>
<path xmlns="http://www.w3.org/2000/svg" style="opacity:0.05;fill:#010101;enable-background:new    ;" d="M135.719,160H448v-32H64v256h32V199.719  C96,177.783,113.783,160,135.719,160z" fill=""/>
<g xmlns="http://www.w3.org/2000/svg">
	<path style="" d="M128,213.333c2.729,0,5.458-1.042,7.542-3.125l21.333-21.333c4.167-4.167,4.167-10.917,0-15.083   c-4.167-4.167-10.917-4.167-15.083,0l-21.333,21.333c-4.167,4.167-4.167,10.917,0,15.083   C122.542,212.292,125.271,213.333,128,213.333z" fill="#ffa500" data-original="#ffffff" class=""/>
	<path style="" d="M131.125,242.208c2.083,2.083,4.813,3.125,7.542,3.125s5.458-1.042,7.542-3.125l42.667-42.667   c4.167-4.167,4.167-10.917,0-15.083c-4.167-4.167-10.917-4.167-15.083,0l-42.667,42.667   C126.958,231.292,126.958,238.042,131.125,242.208z" fill="#ffa500" data-original="#ffffff" class=""/>
</g>
<linearGradient xmlns="http://www.w3.org/2000/svg" id="SVGID_1_" gradientUnits="userSpaceOnUse" x1="-47.4107" y1="640.4102" x2="-21.9956" y2="628.5586" gradientTransform="matrix(21.3333 0 0 -21.3333 996.3334 13791.667)">
	<stop offset="0" style="stop-color:#FFFFFF;stop-opacity:0.2"/>
	<stop offset="1" style="stop-color:#FFFFFF;stop-opacity:0"/>
</linearGradient>
<path xmlns="http://www.w3.org/2000/svg" style="fill:url(#SVGID_1_);" d="M469.333,64H42.667C19.146,64,0,83.135,0,106.667v298.667C0,428.865,19.146,448,42.667,448  h426.667C492.854,448,512,428.865,512,405.333V106.667C512,83.135,492.854,64,469.333,64z" fill=""/>
<g xmlns="http://www.w3.org/2000/svg">
</g>
<g xmlns="http://www.w3.org/2000/svg">
</g>
<g xmlns="http://www.w3.org/2000/svg">
</g>
<g xmlns="http://www.w3.org/2000/svg">
</g>
<g xmlns="http://www.w3.org/2000/svg">
</g>
<g xmlns="http://www.w3.org/2000/svg">
</g>
<g xmlns="http://www.w3.org/2000/svg">
</g>
<g xmlns="http://www.w3.org/2000/svg">
</g>
<g xmlns="http://www.w3.org/2000/svg">
</g>
<g xmlns="http://www.w3.org/2000/svg">
</g>
<g xmlns="http://www.w3.org/2000/svg">
</g>
<g xmlns="http://www.w3.org/2000/svg">
</g>
<g xmlns="http://www.w3.org/2000/svg">
</g>
<g xmlns="http://www.w3.org/2000/svg">
</g>
<g xmlns="http://www.w3.org/2000/svg">
</g>
</g></svg>
